<?xml version="1.0" encoding="UTF-8"?>
<svg opacity='0' width="328px" height="284px" viewBox="-13 0 348 284" version="1.1" xmlns="http://www.w3.org/2000/svg" xmlns:xlink="http://www.w3.org/1999/xlink" >
    <!-- Generator: Sketch 49.3 (51167) - http://www.bohemiancoding.com/sketch -->
    <title>1</title>
    <desc>Created with Sketch.</desc>
    <defs>
     <filter id="dropShadow">
      <feGaussianBlur in="SourceAlpha" stdDeviation="5" />
      <feOffset dx="0" dy="5" />
      <feMerge>
          <feMergeNode />
          <feMergeNode in="SourceGraphic" />
      </feMerge>
  </filter>
  <filter id="dropShadow2">
      <feGaussianBlur in="SourceAlpha" stdDeviation="5" />
      <feOffset dx="0" dy="2" />
      <feMerge>
          <feMergeNode />
          <feMergeNode in="SourceGraphic" />
      </feMerge>
  </filter>
    </defs>
    <g id="Page-8" stroke="#fff" stroke-width="1" fill="none" fill-rule="evenodd">
        <g id="Artboard" transform="translate(-788.000000, -445.000000)" fill="none">
            <g id="1" transform="translate(788.000000, 445.000000)">
                <path  d="M55.0294119,274.818248 C54.7938718,274.58238 54.5590925,274.345752 54.3250782,274.108368 L59.6334751,268.799971 C59.8662727,269.038565 60.0998742,269.276371 60.3342787,269.513381 L55.0294119,274.818248 Z M53.1476206,272.900882 C52.9162072,272.660969 52.6855655,272.420307 52.4556994,272.178899 L57.8647576,266.955433 C58.0933826,267.198032 58.3228264,267.439852 58.5530843,267.680887 L53.147605,272.900897 Z M51.2994745,270.951314 C51.0722575,270.707428 50.8458227,270.462803 50.620174,270.217444 L56.1285457,265.080804 C56.3529332,265.327333 56.5781504,265.573093 56.804193,265.81808 L51.2994353,270.95135 Z M49.4855225,268.970126 C49.2625705,268.722339 49.0404111,268.473826 48.8190485,268.224589 L54.4253518,263.176651 C54.645434,263.427035 54.8663569,263.676662 55.0881162,263.925528 L49.4855225,268.970126 Z M47.7063066,266.95791 C47.4876872,266.706298 47.2698709,266.453969 47.0528616,266.200928 L52.7556773,261.243546 C52.9713874,261.497711 53.1879491,261.75113 53.4053581,262.0038 L47.7063066,266.95791 Z M45.9623611,264.915265 C45.7481411,264.659902 45.5347345,264.403833 45.3221451,264.147063 L51.1200163,259.282071 C51.3312885,259.539942 51.5434231,259.797078 51.7564157,260.053476 L45.9623611,264.915265 Z M44.2542154,262.8428 C44.0444598,262.58376 43.8355278,262.324026 43.6274232,262.063602 L49.5188555,257.292814 C49.725625,257.554313 49.9332675,257.81509 50.1417788,258.075141 L44.2542132,262.842797 Z M42.5823823,260.74112 C42.3771583,260.478483 42.1727678,260.215164 41.9692149,259.951165 L47.9526742,255.276369 C48.1548783,255.541421 48.3579642,255.805761 48.5619294,256.069385 L42.5823823,260.74112 Z M40.9473847,258.610858 C40.7467524,258.344698 40.5469636,258.077866 40.3480222,257.810366 L46.421944,253.233338 C46.6195186,253.501862 46.8179872,253.769689 47.0173454,254.036813 L40.9473807,258.610853 Z M39.3591379,256.46559 C39.1631374,256.196012 38.9679902,255.925774 38.7737002,255.654879 L44.936404,251.177401 C45.1293203,251.449304 45.3231367,251.720513 45.5178529,251.991032 L39.3591379,256.46559 Z M37.7992589,254.280467 C37.6079765,254.007527 37.4175569,253.733938 37.2280043,253.459704 L43.4779144,249.083455 C43.6660814,249.358674 43.8551572,249.633209 44.0451429,249.907066 L37.7992589,254.280467 Z M36.2776824,252.068664 C36.0911758,251.792438 35.9055416,251.515575 35.7207838,251.238079 L42.0562279,246.964768 C42.2395856,247.24322 42.423861,247.521 42.6090563,247.798114 L36.2776824,252.068664 Z M34.7948876,249.830832 C34.6132186,249.551406 34.4324315,249.271354 34.2525301,248.990679 L40.6717835,244.821968 C40.8502731,245.103572 41.0296896,245.384515 41.2100358,245.664803 L34.7948876,249.830832 Z M33.3513448,247.567633 C33.1745718,247.285089 32.9986899,247.00193 32.823703,246.718161 L39.3250108,242.655693 C39.4985674,242.940354 39.6730676,243.224376 39.8485072,243.507755 L33.3513448,247.567633 Z M31.9475148,245.279736 C31.7756949,244.994158 31.6047752,244.707977 31.4347596,244.421197 L38.0163305,240.46659 C38.1849054,240.754234 38.3544335,241.041251 38.5249105,241.327638 L31.9475148,245.279736 Z M30.5838486,242.967821 C30.4170377,242.679294 30.2511357,242.390175 30.0861468,242.100469 L36.7461529,238.255312 C36.9096918,238.545854 37.0741931,238.835782 37.2396525,239.125091 L30.5838486,242.967821 Z M29.2607869,240.632574 C29.0990392,240.341183 28.9382094,240.049213 28.7783013,239.756666 L35.5148784,236.022521 C35.6733281,236.315874 35.8327493,236.608626 35.9931378,236.900771 L29.2607869,240.632574 Z M27.9787591,238.274692 C27.8221278,237.980525 27.6664229,237.685789 27.5116481,237.39049 L34.3228962,233.768885 C34.4762051,234.064963 34.6304944,234.360451 34.7857598,234.655346 L27.9787591,238.274692 Z M26.7454692,235.909159 C26.5939747,235.612319 26.4434149,235.314922 26.2937937,235.016973 L33.1777061,231.509444 C33.3258567,231.808142 33.4749965,232.106263 33.625121,232.403801 L26.7454692,235.909159 Z M25.5466431,233.50855 C25.4003655,233.20911 25.2550307,232.909126 25.1106426,232.6086 L32.0653173,229.216578 C32.2082295,229.517824 32.3521393,229.818503 32.4970424,230.118614 L25.5466431,233.50855 Z M24.3900532,231.087446 C24.2490407,230.785497 24.1089789,230.483014 23.9698717,230.180002 L30.9933027,226.904922 C31.1309298,227.208625 31.2695627,227.511774 31.4091972,227.814366 L24.3900532,231.087446 Z M23.2760789,228.646579 C23.140378,228.342211 23.0056356,228.037322 22.8718554,227.731915 L29.9620023,224.575178 C30.0942992,224.881246 30.2276101,225.186773 30.3619305,225.491755 L23.2760789,228.646579 Z M22.2050854,226.18669 C22.0747408,225.879996 21.9453622,225.572792 21.8169533,225.265082 L28.9717417,222.228055 C29.0986654,222.536395 29.2266108,222.844208 29.3555735,223.151488 L22.2050854,226.18669 Z M21.177423,223.708528 C21.0524775,223.399601 20.9285051,223.090176 20.8055099,222.780256 L28.0228319,219.864269 C28.1443413,220.17479 28.2668798,220.484795 28.3904432,220.794279 L21.177423,223.708528 Z M20.1934259,221.212853 C20.0739202,220.901786 19.9553947,220.590234 19.8378533,220.278199 L27.1155686,217.484546 C27.2316244,217.797152 27.3487167,218.109255 27.4668412,218.42085 L20.1934259,221.212853 Z M19.2534119,218.700429 C19.1393847,218.387319 19.0263445,218.073734 18.914295,217.759679 L26.250231,215.089617 C26.3607964,215.404214 26.4724052,215.71832 26.5850533,216.03193 L19.2534119,218.700429 Z M18.3576814,216.172031 C18.2491691,215.856973 18.1416503,215.541453 18.0351287,215.225474 L25.4270815,212.680221 C25.5321217,212.996712 25.638212,213.312724 25.7453484,213.628253 L18.3576814,216.172031 Z M17.5114703,213.643686 C17.4084738,213.326788 17.3064771,213.00944 17.2054837,212.691645 L24.6511479,210.272402 C24.7506655,210.590679 24.8512396,210.90849 24.9528662,211.22583 L17.5114703,213.643686 Z M16.7049606,211.086088 C16.6075442,210.767437 16.5111334,210.448347 16.4157319,210.128822 L23.9129134,207.836703 C24.0068443,208.156681 24.1018379,208.476204 24.1978901,208.795269 L16.7049606,211.086088 Z M15.9435093,208.514874 C15.8517022,208.194569 15.7609063,207.873836 15.6711255,207.55268 L23.2175318,205.388782 C23.3058485,205.710362 23.3952337,206.0315 23.4856834,206.352191 L15.9435093,208.514874 Z M15.2273394,205.930846 C15.1411683,205.608985 15.0560138,205.286709 14.9718797,204.96402 L22.5651908,202.929398 C22.6478684,203.252481 22.73162,203.575134 22.8164416,203.897352 L15.2273394,205.930846 Z M14.5566526,203.334808 C14.4761416,203.011492 14.3966524,202.687771 14.3181885,202.36365 L21.9560578,200.459316 C22.033074,200.783802 22.1111694,201.10787 22.1903401,201.431516 L14.5566526,203.334808 Z M13.9316289,200.72757 C13.8567994,200.402899 13.7829964,200.077835 13.7102236,199.752382 L21.3902791,197.979301 C21.4616144,198.305091 21.5340338,198.630474 21.6075333,198.955448 L13.9316289,200.72757 Z M13.3524255,198.109946 C13.283296,197.78402 13.2151975,197.457713 13.1481335,197.131029 L20.8679794,195.490125 C20.9336171,195.817117 21.0003434,196.143716 21.0681546,196.469917 L13.3524255,198.109946 Z M12.8191764,195.482751 C12.7557625,195.155672 12.6933838,194.828223 12.6320437,194.500409 L20.3892611,192.992558 C20.4491875,193.320653 20.5102067,193.648366 20.5723149,193.975693 L12.8191764,195.482751 Z M12.3319916,192.846802 C12.2743062,192.518671 12.2176596,192.190183 12.1620553,191.86134 L19.9542042,190.487374 C20.0084085,190.816469 20.0637094,191.145195 20.1201032,191.473548 L12.3319916,192.846802 Z M11.8934574,190.218752 C11.8414757,189.889677 11.7905361,189.560255 11.7406424,189.23049 L19.5651962,187.991203 C19.6137066,188.321193 19.6633172,188.650825 19.7140241,188.980096 L11.8934574,190.218752 Z M11.4984032,187.568115 C11.4521653,187.238191 11.4069727,186.907932 11.362829,186.577341 L19.2173752,185.473457 C19.2601517,185.804247 19.3040316,186.13469 19.349011,186.464784 L11.4984032,187.568115 Z M11.1495843,184.91117 C11.1090937,184.580499 11.0696512,184.249504 11.0312603,183.918189 L18.9133037,182.950396 C18.9503447,183.281884 18.9884919,183.613038 19.0277414,183.943854 L11.1495843,184.91117 Z M10.8470118,182.248731 C10.8122688,181.917415 10.7785763,181.585785 10.7459378,181.253846 L18.652968,180.422784 C18.6842751,180.75487 18.7166907,181.086634 18.750211,181.418071 L10.8470118,182.248731 Z M10.5906709,179.581608 C10.5616737,179.249759 10.533729,178.917608 10.5068402,178.585159 L18.4363302,177.891382 C18.461909,178.223978 18.4885985,178.556264 18.5163949,178.888235 L10.5906709,179.581608 Z M10.3805215,176.910605 C10.3572623,176.578308 10.3350574,176.245719 10.31391,175.912843 L18.2633285,175.356944 C18.2831862,175.689945 18.3041551,176.022629 18.3262326,176.355011 L10.3805215,176.910605 Z M10.2164973,174.236523 C10.198967,173.903878 10.1824924,173.570953 10.1670766,173.237751 L18.1338771,172.820218 C18.1480235,173.153503 18.1632835,173.486499 18.1796534,173.819204 L10.2164973,174.236523 Z M10.0985068,171.560158 C10.086693,171.227264 10.0759357,170.8941 10.0662383,170.56067 L18.0478661,170.281945 C18.0563165,170.615426 18.0658813,170.94863 18.0765569,171.281553 L10.0985066,171.560153 Z M10.0264323,168.882277 C10.0203193,168.549239 10.0152636,168.215942 10.0112683,167.88239 L18.0051406,167.742856 C18.0079342,168.076439 18.0118211,168.409757 18.0168194,168.742805 L10.0264323,168.882277 Z M10.00005,165.874577 C10.0003159,165.540995 10.0016424,165.20766 10.0040263,164.874577 L18.0088311,164.874577 C18.0052104,165.207645 18.0027011,165.54098 18.0013068,165.874577 L10.0000464,165.874577 Z M10.0250197,163.195738 C10.0309755,162.862213 10.0379916,162.528948 10.0460647,162.195944 L18.0580436,162.335803 C18.0487506,162.668757 18.0405683,163.002002 18.0335005,163.335521 L10.0250197,163.195738 Z M10.0957574,160.517866 C10.1074212,160.184498 10.1201446,159.851399 10.1339244,159.518574 L18.1505494,159.798558 C18.1355693,160.131282 18.1216973,160.464341 18.108939,160.797686 L10.0957566,160.517888 Z M10.2123927,157.841737 C10.229778,157.508653 10.2482217,157.175849 10.2677204,156.843328 L18.2864475,157.263571 C18.2657641,157.596037 18.2461896,157.928803 18.2277277,158.261866 L10.2123894,157.8418 Z M10.3750217,155.168257 C10.3981422,154.835508 10.4223198,154.50305 10.4475511,154.170887 L18.4658132,154.731578 C18.4394185,155.063647 18.4141311,155.396027 18.3899546,155.728716 L10.3750217,155.168257 Z M10.5837313,152.498047 C10.6125944,152.165755 10.6425128,151.833765 10.6734831,151.50208 L18.688698,152.20332 C18.6565855,152.534892 18.6255782,152.866787 18.5956799,153.199002 L10.5837313,152.498047 Z M10.8385707,149.831969 C10.8731815,149.500233 10.9088454,149.168811 10.9455591,148.837705 L18.9551299,149.679545 C18.917296,150.01052 18.8805651,150.341831 18.8449409,150.673472 L10.8385707,149.831969 Z M11.1395665,147.170823 C11.1799269,146.839746 11.2213379,146.508993 11.2637961,146.178567 L19.2651127,147.161005 C19.2215573,147.491284 19.1791021,147.821909 19.137751,148.152877 L11.1395665,147.170823 Z M11.4844766,144.531493 C11.5305505,144.201169 11.5776721,143.871181 11.6258381,143.541532 L19.6162271,144.664508 C19.5669896,144.993994 19.5188493,145.323839 19.4718101,145.654039 L11.4844766,144.531493 Z M11.8775691,141.882048 C11.929388,141.552584 11.9822516,141.223467 12.0361563,140.8947 L20.0130425,142.158115 C19.9580911,142.486704 19.9042334,142.815664 19.8514733,143.14499 L11.8775691,141.882048 Z M12.3167649,139.239958 C12.3743213,138.911455 12.4329189,138.583311 12.4925541,138.255528 L20.4533,139.659222 C20.3926436,139.986814 20.3330771,140.314787 20.2746045,140.64314 L12.3167649,139.239958 Z M12.8019896,136.606036 C12.8652731,136.278596 12.9295938,135.951525 12.9949481,135.624827 L20.9369107,137.168588 C20.8705612,137.495081 20.8052976,137.821969 20.7411238,138.149248 L12.8019896,136.606036 Z M13.3331443,133.981096 C13.4021411,133.654818 13.472171,133.328922 13.5432304,133.00341 L21.463763,134.686972 C21.3917354,135.012267 21.3207893,135.337968 21.2509284,135.664073 L13.3331443,133.981096 Z M13.9101059,131.365948 C13.9847996,131.040934 14.0605218,130.716313 14.137269,130.392089 L22.0337234,132.215129 C21.9560356,132.539126 21.8794243,132.863542 21.8038936,133.188373 L13.9101059,131.365948 Z M14.5327277,128.761403 C14.6130989,128.437753 14.6944937,128.114507 14.7769087,127.79167 L22.6466372,129.753814 C22.5633096,130.076414 22.4810534,130.399444 22.3998727,130.722902 L14.5327277,128.761403 Z M15.2008401,126.168265 C15.2868666,125.84608 15.3739116,125.52431 15.4619715,125.202959 L23.3023283,127.303776 C23.2133843,127.62488 23.1255062,127.946427 23.0386982,128.268413 L15.2008401,126.168265 Z M15.9142511,123.587339 C16.0059079,123.266716 16.0985779,122.946521 16.1922573,122.626756 L24.0006007,124.865763 C23.9060661,125.185272 23.8125918,125.505237 23.7201817,125.825653 L15.9142511,123.587339 Z M16.677423,121.004088 C16.7747162,120.685137 16.8730168,120.366625 16.972321,120.048556 L24.7460548,122.425225 C24.6459231,122.743032 24.5468454,123.061306 24.448826,123.380044 L16.677423,121.004088 Z M17.4811375,118.449744 C17.584004,118.132552 17.6878719,117.815812 17.7927375,117.499527 L25.5291927,120.013253 C25.4235293,120.329271 25.3189136,120.645768 25.2153498,120.962742 L17.4811375,118.449744 Z M18.3294552,115.909997 C18.4378626,115.594663 18.547265,115.279791 18.6576588,114.965386 L26.354216,117.615523 C26.2430542,117.929656 26.1329336,118.24428 26.0238582,118.559393 L18.3294552,115.909997 Z M19.2221014,113.385628 C19.3360148,113.072246 19.4509167,112.75934 19.5668034,112.446911 L27.220854,115.232758 C27.1042295,115.54491 26.9886392,115.857566 26.8740873,116.170723 L19.2221014,113.385628 Z M20.1587831,110.877406 C20.2781653,110.566073 20.3985293,110.255226 20.5198711,109.94487 L28.1288192,112.865671 C28.0067698,113.175749 27.8857474,113.486343 27.7657561,113.797449 L20.1587831,110.877406 Z M21.139189,108.386096 C21.2640009,108.076905 21.3897874,107.768213 21.5165447,107.460023 L29.0778082,110.514971 C28.9503737,110.822881 28.8239588,111.13132 28.6985676,111.440283 L21.139189,108.386096 Z M22.1629913,105.912452 C22.2931914,105.605498 22.4243589,105.299053 22.5564898,104.993122 L30.0675024,108.181358 C29.9347247,108.487007 29.8029589,108.793198 29.6722091,109.099926 L22.1629913,105.912452 Z M23.2298457,103.457222 C23.3653908,103.152596 23.5018957,102.848491 23.6393565,102.544912 L31.0975687,105.865522 C30.9594916,106.16882 30.8224184,106.472672 30.6863534,106.777073 L23.2298457,103.457222 Z M24.3393928,101.021143 C24.4802377,100.718937 24.6220345,100.417263 24.7647796,100.116127 L32.1676605,103.568147 C32.0243295,103.869004 31.8819943,104.170426 31.7406591,104.47241 L24.3393928,101.021143 Z M25.4982831,98.5905363 C25.6444121,98.2908546 25.7914851,97.9917176 25.9394982,97.6931294 L33.2845634,101.275557 C33.135993,101.573867 32.98841,101.872756 32.8418186,102.172218 L25.4982831,98.5905363 Z M26.6924772,96.1947717 C26.8438106,95.8976896 26.9960799,95.6011639 27.149281,95.3051987 L34.4340126,99.0169548 C34.2802843,99.3126456 34.1275348,99.6089267 33.9757683,99.9057939 L26.6924772,96.1947717 Z M27.9282063,93.8203304 C28.0846939,93.5259359 28.2421088,93.2321096 28.4004473,92.9388553 L35.6223772,96.7788236 C35.4635416,97.071808 35.3056759,97.3653948 35.1487845,97.6595799 L27.9282063,93.8203304 Z M29.2050566,91.4679133 C29.3666463,91.1762935 29.5291549,90.8852534 29.6925784,90.594797 L36.8492623,94.5618116 C36.6853714,94.8520037 36.5224414,95.1428103 36.3604766,95.4342274 L29.2050566,91.4679133 Z M30.5226025,89.1382118 C30.6892411,88.8494525 30.8567898,88.5612845 31.0252447,88.2737118 L38.1142627,92.3665583 C37.9453699,92.6538731 37.7774288,92.9418148 37.6104438,93.2303789 L30.5226025,89.1382118 Z M31.8804076,86.831908 C32.0520403,86.5460941 32.2245742,86.260883 32.3980053,85.9762787 L39.4169633,90.1936941 C39.2431234,90.4780481 39.0702259,90.7630409 38.8982751,91.0486683 L31.8804076,86.831908 Z M33.2780249,84.5496748 C33.4545956,84.2668899 33.6320584,83.9847194 33.8104094,83.7031672 L40.75694,88.0438412 C40.5782091,88.3251516 40.400411,88.6071129 40.2235502,88.8897207 L33.2780249,84.5496748 Z M34.7149975,82.2921756 C34.896449,82.0125025 35.0787832,81.7334551 35.2619964,81.4550376 L42.1337599,85.917613 C41.9501953,86.1957982 41.7675538,86.4746462 41.5858399,86.7541528 L34.7149975,82.2921756 Z M36.1908594,80.060065 C36.3771331,79.7835852 36.5642801,79.5077427 36.7522967,79.2325413 L43.5469821,83.8156145 C43.3586421,84.0905939 43.1712155,84.3662481 42.9847066,84.6425728 L36.1908594,80.060065 Z M37.7143218,77.8408528 C37.9053863,77.5676667 38.0973146,77.2951292 38.2901029,77.0232444 L45.0054431,81.7253763 C44.8123577,81.9970495 44.6201755,82.2694094 44.428901,82.5424517 L37.7143218,77.8408528 Z M39.1591642,75.8100907 C39.3546093,75.5400268 39.5509093,75.2706221 39.7480601,75.0018806 L46.3816438,79.8214613 C46.1842392,80.0900153 45.9877285,80.3592671 45.7921161,80.6292123 L39.1591642,75.8100907 Z M40.7450826,73.6581261 C40.9451675,73.3914863 41.1460974,73.125517 41.3478684,72.8602222 L47.8976338,77.7958244 C47.6956358,78.0609454 47.4945213,78.3267759 47.2942949,78.5933116 L40.7450826,73.6581261 Z M42.3679405,71.5339522 C42.5726026,71.270814 42.7780997,71.0083575 42.984428,70.7465867 L49.4481878,75.7966293 C49.2416586,76.0582407 49.0360026,76.3205733 48.8312242,76.5836228 L42.3679405,71.5339522 Z M44.0272357,69.4381806 C44.2364113,69.1786206 44.446412,68.9197536 44.6572337,68.6615833 L51.0328333,73.824442 C50.8218362,74.0824681 50.6117018,74.3412272 50.4024345,74.6007147 L44.0272357,69.4381806 Z M45.7224588,67.3714153 C45.9360833,67.1155093 46.1505228,66.8603072 46.3657733,66.605813 L52.6510917,71.8798214 C52.4356909,72.1341875 52.2211422,72.3892982 52.00745,72.6451491 L45.7224588,67.3714153 Z M47.4530932,65.3342528 C47.6711012,65.0820754 47.889914,64.8306129 48.1095274,64.5798694 L54.3024781,69.9633193 C54.0827386,70.2139517 53.8638406,70.4653403 53.6457883,70.7174805 L47.4530932,65.3342528 Z M49.2186156,63.327282 C49.4409408,63.078907 49.6640602,62.8312579 49.88797,62.5843387 L55.9865013,68.075481 C55.7624893,68.3223069 55.5393077,68.5699004 55.3169611,68.818257 L49.2186156,63.327282 Z M51.018496,61.3510847 C51.2450709,61.106585 51.4724296,60.862822 51.7005682,60.6197999 L57.7026644,66.2168451 C57.4744466,66.4597926 57.2470483,66.7035189 57.0204741,66.9480198 L51.018496,61.3510847 Z M52.8521975,59.4062354 C53.0829539,59.165683 53.3144836,58.9258782 53.5467827,58.6868249 L59.4504643,64.387944 C59.2181084,64.6269419 58.9865611,64.86673 58.7558267,65.1073039 L52.8521975,59.4062354 Z M54.7304716,57.4819282 C54.9653648,57.2454185 55.2010207,57.0096672 55.4374352,56.7746783 L61.2407618,62.5780048 C61.0043108,62.8129572 60.7686572,63.0487111 60.5338054,63.285262 L54.7304716,57.4819282 Z M56.6306056,55.6014412 C56.8695414,55.3690212 57.1092291,55.1373701 57.3496646,54.9064921 L63.0507287,60.8101168 C62.8102777,61.0409791 62.5706128,61.2726539 62.3317384,61.505137 L56.6306056,55.6014412 Z M58.5629109,53.7540001 C58.8058182,53.525739 59.0494667,53.2982574 59.2938522,53.0715595 L64.8907878,59.0735381 C64.646407,59.3002417 64.402801,59.5277691 64.1599742,59.7561157 L58.5629109,53.7540001 Z M60.526823,51.9401522 C60.7736301,51.7161186 61.0211674,51.4928749 61.269431,51.2704253 L66.760411,57.3687765 C66.5121716,57.5912539 66.2646956,57.814566 66.0179876,58.0387083 L60.526823,51.9401522 Z M62.5217707,50.1604386 C62.7724049,49.9407 63.0237583,49.7217618 63.275827,49.503628 L68.6590641,55.6963339 C68.4070382,55.9145184 68.1557643,56.1335484 67.9052468,56.3534194 L62.5217707,50.1604386 Z M64.5471757,48.4153934 C64.8015633,48.2000166 65.0566591,47.9854504 65.3124592,47.7716989 L70.5862065,54.0567062 C70.330467,54.2705319 70.0754681,54.4852138 69.821214,54.7007475 L64.5471757,48.4153934 Z M66.6024524,46.7055443 C66.8605188,46.494595 67.1192824,46.2844666 67.3787392,46.0751629 L72.5412908,52.4503832 C72.2819117,52.6597852 72.0232614,52.8700539 71.7653445,53.0811851 L66.6024524,46.7055443 Z M68.6870077,45.031412 C68.9486775,44.8249551 69.2110333,44.6193292 69.4740712,44.414538 L74.5237629,50.8778487 C74.2608188,51.0827628 73.998592,51.2885542 73.7370869,51.4952185 L68.6870077,45.031412 Z M70.8002411,43.3935103 C71.0654378,43.1916098 71.3313094,42.9905501 71.5978517,42.7903351 L76.5330616,49.3395799 C76.2666284,49.5399431 76.0009006,49.741194 75.7358828,49.9433281 L70.8002411,43.3935103 Z M72.9544645,41.7828589 C73.2231311,41.5856056 73.4924612,41.389203 73.7624508,41.193655 L78.581594,47.8266366 C78.3117269,48.0223572 78.0425535,48.2189758 77.7740782,48.416488 L72.9544645,41.7828589 Z M75.1236483,40.2189685 C75.395686,40.0263974 75.6683757,39.8346867 75.9417137,39.6438402 L80.6432602,46.3583445 C80.3700583,46.5493898 80.0975382,46.7413433 79.8257043,46.9342005 L75.1236483,40.2189685 Z M77.3196591,38.6928218 C77.5949884,38.5049937 77.8709583,38.3180356 78.1475651,38.1319512 L82.730024,44.925726 C82.4535659,45.1120359 82.1777778,45.299264 81.9026639,45.4874058 L77.3196591,38.6928218 Z M79.5418634,37.2049024 C79.8204038,37.0218773 80.0995735,36.8397314 80.3793685,36.6584687 L84.8412939,43.5292313 C84.5616592,43.7107468 84.2826825,43.8931902 84.0043682,44.0765572 L79.5418634,37.2049024 Z M81.789619,35.7556861 C82.071289,35.5775225 82.3535768,35.4002474 82.6364785,35.2238647 L86.9764701,42.1693031 C86.6937395,42.3459662 86.4116549,42.5235669 86.1302207,42.7021009 L81.789619,35.7556861 Z M84.0622749,34.3456398 C84.346992,34.1723951 84.6323153,34.0000481 84.9182411,33.8286026 L89.1349448,40.8463761 C88.8492,41.0181301 88.5640891,41.1908312 88.2796167,41.3644751 L84.0622749,34.3456398 Z M86.3591713,32.975221 C86.6468517,32.8069516 86.935127,32.6395887 87.2239931,32.4731363 L91.3161019,39.5608767 C91.0274256,39.727666 90.7393712,39.8954118 90.4519431,40.0641096 L86.3591713,32.975221 Z M88.6796391,31.6448779 C88.9701982,31.4816386 89.2613406,31.3193146 89.5530623,31.1579098 L93.5193168,38.3132224 C93.2277927,38.4749928 92.9368785,38.6377287 92.6465785,38.801426 L88.6796391,31.6448779 Z M91.0230001,30.3550483 C91.3163522,30.1968927 91.6102759,30.039661 91.9047674,29.883357 L95.7439563,37.1038212 C95.4496694,37.2605198 95.1559801,37.4181929 94.8628929,37.5768363 L91.0230001,30.3550483 Z M93.4028072,29.0988 C93.6988813,28.9458112 93.9955153,28.7937546 94.2927053,28.6426341 L98.003656,35.925785 C97.7066755,36.0773276 97.4102805,36.2298536 97.1144752,36.3833588 L93.4028072,29.0988 Z M95.7903005,27.8913723 C96.0889925,27.7435707 96.3882328,27.5967095 96.6880174,27.4507926 L100.269627,34.7941803 C99.9700566,34.9405487 99.6710596,35.0879091 99.3726402,35.2362571 L95.7903005,27.8913723 Z M98.1985928,26.7257189 C98.4998137,26.5831534 98.8015712,26.4415364 99.1038613,26.3008717 L102.555067,33.7020057 C102.252995,33.8431516 101.951484,33.9852977 101.650538,34.1284399 L98.1985928,26.7257189 Z M100.626968,25.6022304 C100.930628,25.4649484 101.234812,25.3286226 101.539518,25.1932568 L104.859307,32.6496259 C104.554823,32.7855024 104.250887,32.9223874 103.947504,33.0602766 L100.626968,25.6022304 Z M103.074702,24.5212838 C103.380709,24.3893307 103.687229,24.2583414 103.994259,24.1283196 L107.181671,31.6373928 C106.874864,31.7679551 106.568594,31.8995337 106.262865,32.0321245 L103.074702,24.5212838 Z M105.541059,23.4832418 C105.849322,23.3566612 106.158086,23.2310517 106.467347,23.1064171 L109.521473,30.6656453 C109.212435,30.7908502 108.903921,30.9170791 108.595936,31.0443278 L105.541059,23.4832418 Z M108.025297,22.488452 C108.335722,22.3672856 108.646636,22.2470974 108.958036,22.1278911 L111.87802,29.7347083 C111.566843,29.8545146 111.256178,29.9753523 110.946029,30.0972172 L108.025297,22.488452 Z M110.526665,21.5372461 C110.839157,21.4215336 111.152127,21.306806 111.465572,21.1930671 L114.250608,28.8448919 C113.937385,28.9592604 113.624662,29.0746674 113.312443,29.1911089 L110.526665,21.5372461 Z M113.044402,20.6299393 C113.358867,20.519718 113.673798,20.4104883 113.989191,20.3022538 L116.638529,27.9964908 C116.323355,28.1053844 116.008668,28.2153235 115.694473,28.3263039 L113.044402,20.6299393 Z M115.592958,19.7617935 C115.90931,19.6571319 116.226117,19.5534682 116.543374,19.4508061 L119.056306,27.1848149 C118.739263,27.2881638 118.422696,27.3925648 118.106608,27.4980137 L115.592958,19.7617935 Z M118.141518,18.9433297 C118.45965,18.8442284 118.778224,18.746131 119.097237,18.6490412 L121.473129,26.4202343 C121.154326,26.5180399 120.835986,26.616904 120.518114,26.7168224 L118.141518,18.9433297 Z M120.704117,18.1696157 C121.02393,18.0761051 121.344174,17.9836042 121.664845,17.8921166 L123.903107,25.6978667 C123.582641,25.7900989 123.262625,25.8833956 122.943064,25.9777526 L120.704117,18.1696157 Z M123.279964,17.4408915 C123.601359,17.3529996 123.923174,17.2661228 124.245405,17.1802647 L126.345503,25.0179373 C126.02347,25.1045683 125.701876,25.1922695 125.380724,25.2810369 L123.279964,17.4408915 Z M125.868264,16.7573766 C126.191144,16.6751287 126.514431,16.593901 126.838122,16.5136973 L128.799574,24.3806519 C128.476073,24.4616567 128.152998,24.5437371 127.830354,24.626889 L125.868264,16.7573766 Z M128.468219,16.1192688 C128.792482,16.0426876 129.117141,15.9671315 129.442193,15.892604 L131.264573,23.7861968 C130.939702,23.8615528 130.615246,23.9379895 130.291208,24.0155029 L128.468219,16.1192688 Z M131.079023,15.5267442 C131.40457,15.4558495 131.730501,15.3859844 132.056813,15.3171525 L133.739748,23.2347376 C133.413607,23.304425 133.087869,23.3751979 132.762536,23.4470523 L131.079023,15.5267442 Z M133.699869,14.9799558 C134.026599,14.9147647 134.353702,14.8506074 134.681174,14.7874874 L136.224346,22.7264187 C135.897034,22.7904207 135.570113,22.8555125 135.243586,22.9216902 L133.699869,14.9799558 Z M136.329948,14.4790335 C136.657759,14.41956 136.985933,14.3611243 137.314464,14.3037298 L138.717609,22.261363 C138.389227,22.3196654 138.061223,22.3790617 137.733601,22.439548 L136.329948,14.4790335 Z M138.984267,14.0214981 C139.313064,13.9677878 139.642212,13.9151188 139.971706,13.8634945 L141.234608,21.8371445 C140.90525,21.8896999 140.576258,21.9433531 140.247636,21.9981001 L138.984267,14.0214981 Z M141.630739,13.6128306 C141.960415,13.5648579 142.29043,13.5179296 142.620781,13.4720493 L143.743291,21.4591236 C143.413063,21.5059594 143.083189,21.5538963 142.753674,21.6029305 L141.630739,13.6128306 Z M144.283999,13.2502855 C144.614453,13.2080553 144.945235,13.1668724 145.27634,13.1267403 L146.258355,21.1246114 C145.927358,21.1657225 145.596703,21.2079378 145.266395,21.2512534 L144.283999,13.2502855 Z M146.943239,12.9338941 C147.274369,12.8974082 147.605815,12.8619722 147.937574,12.8275893 L148.779044,20.8336392 C148.447378,20.8690237 148.116042,20.9055149 147.785041,20.9431092 L146.943239,12.9338941 Z M149.607649,12.6636623 C149.939355,12.6329193 150.271365,12.6032284 150.603677,12.5745928 L151.304603,20.5862145 C150.972367,20.6158735 150.640451,20.6466416 150.308858,20.6785151 L149.607649,12.6636623 Z M152.276428,12.4395703 C152.608607,12.4145657 152.941081,12.3906149 153.273846,12.3677212 L153.834281,20.3823212 C153.501576,20.4062591 153.169179,20.431308 152.837094,20.4574643 L152.276428,12.4395703 Z M154.948776,12.2615729 C155.28133,12.2422988 155.614167,12.22408 155.947284,12.2069196 L156.367332,20.2219193 C156.034258,20.2401436 155.701479,20.2594805 155.369,20.2799264 L154.948776,12.2615729 Z M157.623902,12.1295992 C157.956724,12.1160448 158.289819,12.1035467 158.623182,12.0921082 L158.903017,20.104945 C158.569638,20.1174677 158.236571,20.1311033 157.903792,20.145849 L157.623902,12.1295992 Z M160.301015,12.0435527 C160.634023,12.0357031 160.967292,12.0289107 161.30082,12.0231785 L161.440603,20.0313108 C161.107075,20.0381434 160.773826,20.0460905 160.440854,20.0551487 L160.301023,12.0435525 Z M162.995393,12.003208 C163.328477,12.0010802 163.661811,12.0000098 163.995393,12.0000001 L163.995393,20.0007897 C163.661796,20.0019755 163.328462,20.0042153 162.995393,20.0075666 L162.995393,12.003208 Z M165.674514,12.008916 C166.008073,12.0124696 166.341378,12.0170837 166.674425,12.022755 L166.53494,20.0138447 C166.201883,20.0093103 165.868557,20.0058873 165.534967,20.0035793 L165.674514,12.008916 Z M168.35332,12.0603454 C168.686769,12.0696008 169.019953,12.0799162 169.352869,12.0912883 L169.074224,20.0700533 C168.741295,20.0598424 168.408073,20.0507419 168.074574,20.0427558 L168.35332,12.0603454 Z M171.031079,12.1576522 C171.364313,12.1726264 171.697272,12.1886596 172.029951,12.2057486 L171.612522,20.1696287 C171.279836,20.1537251 170.946813,20.1389294 170.613504,20.1252473 L171.031039,12.1576504 Z M173.706893,12.3009634 C174.039806,12.3216694 174.372433,12.3434332 174.704769,12.3662514 L174.149099,20.3126999 C173.816687,20.2910864 173.483972,20.2705817 173.150959,20.2511893 L173.706893,12.3009634 Z M176.38009,12.4903909 C176.712589,12.5168397 177.04479,12.5443446 177.376691,12.5729023 L176.683215,20.4993723 C176.351215,20.47204 176.018901,20.4458147 175.686278,20.4207002 L176.38009,12.4903909 Z M179.049832,12.7260142 C179.381817,12.758213 179.713492,12.7914659 180.044856,12.8257694 L179.214116,20.7297274 C178.882629,20.6966687 178.550817,20.664715 178.218683,20.63387 L179.049832,12.7260142 Z M181.715316,13.0078885 C182.046684,13.0458412 182.377733,13.0848457 182.708458,13.1248985 L181.741048,21.0038226 C181.410175,20.9650332 181.078964,20.9273463 180.74742,20.8907657 L181.715316,13.0078885 Z M184.375729,13.3360432 C184.706381,13.3797507 185.036701,13.4245072 185.366687,13.4703092 L184.263247,21.3216915 C183.933088,21.2771701 183.60258,21.2337485 183.271727,21.1914304 L184.375729,13.3360432 Z M187.046111,13.71286 C187.375938,13.7623541 187.705423,13.8128942 188.034563,13.8644768 L186.795793,21.6857621 C186.466455,21.6354746 186.136756,21.5862838 185.8067,21.5381934 L187.046111,13.71286 Z M189.694216,14.1338911 C190.023122,14.1891326 190.351674,14.2454167 190.67987,14.3027399 L189.306499,22.0915127 C188.978079,22.0354996 188.649285,21.9805796 188.320123,21.9267566 L189.694216,14.1338911 Z M192.334787,14.601147 C192.662671,14.6621272 192.990189,14.7241464 193.317339,14.7872008 L191.810152,22.5410037 C191.482751,22.4792731 191.154964,22.4186319 190.826797,22.3590838 L192.334787,14.601147 Z M194.967005,15.114555 C195.293765,15.1812623 195.620147,15.2490043 195.94615,15.3177776 L194.305979,23.0341732 C193.979698,22.9667364 193.653019,22.9003847 193.325948,22.835122 L194.967005,15.114555 Z M197.590049,15.6740178 C197.915583,15.7464374 198.240729,15.8198873 198.565482,15.8943641 L196.793206,23.5709364 C196.468146,23.4978075 196.142676,23.4257592 195.816802,23.3547954 L197.590049,15.6740178 Z M200.2031,16.279414 C200.527308,16.3575282 200.851115,16.4366681 201.174519,16.5168301 L199.271061,24.1511858 C198.947322,24.072382 198.623162,23.9946538 198.298586,23.9180052 L200.2031,16.279414 Z M202.805341,16.9305985 C203.128122,17.0143869 203.450491,17.099196 203.772445,17.185022 L201.738772,24.7747921 C201.416456,24.6903332 201.093706,24.6069447 200.770527,24.5246306 L202.805341,16.9305985 Z M205.395959,17.6274033 C205.717212,17.7168427 206.038043,17.8072973 206.358447,17.8987636 L204.195572,25.4416044 C203.874777,25.3515129 203.553537,25.2624864 203.231855,25.1745288 L205.395959,17.6274033 Z M207.974143,18.3696381 C208.293771,18.4647024 208.612963,18.5607765 208.931718,18.6578566 L206.640696,26.1514506 C206.321523,26.055752 206.001891,25.9611124 205.681806,25.8675359 L207.974143,18.3696381 Z M210.554371,19.1619304 C210.872263,19.2626245 211.189709,19.3643225 211.506704,19.4670204 L209.088654,26.9090114 C208.771212,26.8076986 208.453299,26.7074386 208.13492,26.6082356 L210.554371,19.1619304 Z M213.105501,19.9947392 C213.421569,20.1009994 213.737179,20.208257 214.052328,20.3165086 L211.508369,27.7047005 C211.192745,27.5978383 210.876638,27.4920225 210.560053,27.3872572 L213.105501,19.9947392 Z M215.641787,20.8722874 C215.955935,20.9840801 216.269612,21.0968638 216.582816,21.2106348 L213.914128,28.5427964 C213.600419,28.4304176 213.286215,28.3190784 212.971521,28.2087831 L215.641787,20.8722874 Z M218.162442,21.7943019 C218.474573,21.9115913 218.786222,22.029865 219.097386,22.1491193 L216.305186,29.4230495 C215.993488,29.3051892 215.681284,29.1883616 215.368577,29.0725708 L218.162442,21.7943019 Z M220.666687,22.7604911 C220.976706,22.8832392 221.286231,23.0069647 221.595259,23.1316637 L218.680804,30.3451928 C218.371214,30.2218885 218.061104,30.0996095 217.750479,29.9783601 L220.666687,22.7604911 Z M223.15375,23.7705456 C223.461562,23.8987123 223.768869,24.0278491 224.075666,24.1579522 L221.040251,31.3089425 C220.732862,31.1802337 220.424942,31.0525426 220.116494,30.9258735 L223.15375,23.7705456 Z M225.622867,24.8241387 C225.928379,24.9576818 226.233374,25.0921876 226.537848,25.2276521 L223.382803,32.3139989 C223.077709,32.1799269 222.772071,32.046865 222.465894,31.9148173 L225.622867,24.8241387 Z M228.073282,25.9209279 C228.376401,26.0598033 228.678992,26.1996336 228.98105,26.340415 L225.707742,33.3600466 C225.405036,33.2206551 225.101773,33.0822655 224.797958,32.9448822 L228.073282,25.9209279 Z M230.504248,27.060555 C230.804883,27.2047166 231.104978,27.3498252 231.404529,27.495877 L228.014359,34.4467558 C227.714132,34.3020901 227.413336,34.1584181 227.111976,34.015744 L230.504248,27.060555 Z M232.929357,28.2498305 C233.227402,28.3992618 233.524896,28.5496318 233.821833,28.7009368 L230.316269,35.5809931 C230.018628,35.4310677 229.720406,35.2821275 229.421607,35.1341767 L232.929357,28.2498305 Z M235.31938,29.4744011 C235.614761,29.6290217 235.909578,29.7845728 236.203828,29.9410505 L232.584306,36.7483812 C232.289325,36.5932773 231.99375,36.4391497 231.697587,36.2860029 L235.31938,29.4744011 Z M237.687752,30.7406549 C237.98038,30.9004138 238.272434,31.0610947 238.563907,31.2226937 L234.831926,37.9553658 C234.539694,37.7951337 234.246855,37.6358691 233.953415,37.4775764 L237.687752,30.7406549 Z M240.033762,32.048179 C240.323551,32.2130236 240.612753,32.3787815 240.901363,32.5454487 L237.058453,39.2015648 C236.769056,39.0362566 236.479041,38.8719068 236.188412,38.7085197 L240.033762,32.048179 Z M242.356707,33.3965484 C242.643571,33.5664246 242.929835,33.7372052 243.215497,33.9088862 L239.263217,40.4865849 C238.976742,40.316254 238.689637,40.1468722 238.401906,39.9784438 L242.356707,33.3965484 Z M244.655895,34.7853268 C244.939748,34.9601792 245.22299,35.1359269 245.505618,35.3125659 L241.445557,41.8100219 C241.162089,41.6347232 240.877979,41.4603641 240.593231,41.2869489 L244.655895,34.7853268 Z M246.930641,36.2140673 C247.211399,36.3938391 247.491535,36.5744969 247.771045,36.7560369 L243.60482,43.1714614 C243.324443,42.991251 243.043413,42.8119706 242.761732,42.6336246 L246.930641,36.2140673 Z M249.180269,37.6823127 C249.457849,37.8669459 249.734796,38.0524557 250.011106,38.2388382 L245.74036,44.5704791 C245.463158,44.3854145 245.18529,44.2012701 244.90676,44.0180503 L249.180269,37.6823127 Z M251.404112,39.1895964 C251.678433,39.3790316 251.952109,39.5693339 252.225136,39.7604995 L247.85154,46.0066414 C247.577596,45.8167813 247.302973,45.6278315 247.027675,45.4397962 L251.404112,39.1895964 Z M253.614542,40.7447795 C253.885502,40.9389844 254.155806,41.1340468 254.425449,41.3299626 L249.950745,47.4888649 C249.68016,47.2942398 249.408884,47.1005148 249.136922,46.9076941 L253.614542,40.7447795 Z M255.784946,42.3291215 C256.052485,42.5280068 256.319357,42.7277397 256.585556,42.9283163 L252.011421,48.9983993 C251.744255,48.7990994 251.476387,48.6006892 251.20782,48.4031731 L255.784946,42.3291215 Z M257.927602,43.9510503 C258.191641,44.1545534 258.455001,44.3588941 258.717678,44.5640685 L254.045856,50.5437282 C253.782188,50.3398155 253.517807,50.1367821 253.252715,49.9346324 L257.927602,43.9510503 Z M260.041875,45.6100638 C260.302335,45.818121 260.562106,46.0270057 260.821183,46.2367141 L256.053442,52.1243837 C255.793352,51.9159214 255.532535,51.7083278 255.270997,51.5016074 L260.041875,45.6100638 Z M262.127139,47.305652 C262.383945,47.5181985 262.640049,47.7315625 262.895448,47.94574 L258.033579,53.7398901 C257.777143,53.5269422 257.519969,53.3148524 257.262062,53.1036252 L262.127139,47.305652 Z M264.182776,49.0372969 C264.435851,49.2542673 264.688213,49.4720447 264.939859,49.6906254 L259.985674,55.389764 C259.732969,55.1723957 259.479514,54.9558748 259.225313,54.7402056 L264.182776,49.0372969 Z M266.208176,50.8044733 C266.457445,51.0258008 266.70599,51.2479251 266.953808,51.4708421 L261.909139,57.0735145 C261.66024,56.851792 261.410579,56.630906 261.160162,56.4108608 L266.208176,50.8044733 Z M268.202735,52.6066483 C268.448123,52.8322654 268.692777,53.0586687 268.936692,53.2858543 L263.803393,58.7906436 C263.558375,58.5646339 263.312584,58.3394497 263.066025,58.1150954 L268.202735,52.6066483 Z M270.165857,54.4432815 C270.407291,54.6731197 270.64798,54.9037336 270.88792,55.1351191 L265.667864,60.5406455 C265.426801,60.3104167 265.184953,60.0810023 264.942325,59.8524066 L270.165857,54.4432815 Z M272.108368,56.3250782 C272.345752,56.5590925 272.58238,56.7938718 272.818248,57.0294119 L267.513381,62.3342787 C267.276371,62.0998742 267.038565,61.8662727 266.799967,61.6334788 L272.108368,56.3250782 Z M274.006885,58.2294064 C274.24017,58.4675021 274.472689,58.7063519 274.704437,58.9459519 L269.316617,64.1489092 C269.083707,63.9104244 268.84999,63.6727314 268.615471,63.4358346 L274.006885,58.2294064 Z M275.872203,60.1665286 C276.101319,60.4086343 276.329658,60.6514834 276.557216,60.8950718 L271.08837,65.9948529 C270.859632,65.7523586 270.630075,65.5106448 270.399705,65.2697158 L275.872203,60.1665286 Z M277.703754,62.1358743 C277.928631,62.3819179 278.15272,62.6286939 278.376018,62.8761982 L272.828091,67.871574 C272.603594,67.6251422 272.378269,67.3794793 272.152118,67.1345898 L277.703754,62.1358743 Z M279.500975,64.1368657 C279.721544,64.3867739 279.941315,64.6374034 280.160284,64.8887504 L274.535236,69.7785295 C274.315052,69.5282329 274.094026,69.2786936 273.872164,69.0299162 L279.500975,64.1368657 Z M281.263312,66.1689168 C281.479506,66.4226155 281.69489,66.6770245 281.909462,66.9321398 L276.209271,71.7151685 C275.993465,71.4610808 275.776809,71.2077389 275.559305,70.9551471 L281.263312,66.1689168 Z M282.990217,68.2314341 C283.201967,68.4888482 283.412899,68.7469615 283.623007,69.0057699 L277.849663,73.6809322 C277.638305,73.4231281 277.426084,73.1660582 277.213006,72.9097267 L282.990217,68.2314341 Z M284.681147,70.323816 C284.888389,70.5848694 285.094801,70.8466107 285.300381,71.109036 L279.455889,75.6752538 C279.249045,75.4138091 279.041328,75.1530868 278.832742,74.8930911 L284.681147,70.323816 Z M286.335571,72.4454524 C286.538238,72.7100681 286.740067,72.9753604 286.941052,73.2413254 L281.027431,77.6975583 C280.825167,77.4325497 280.622019,77.1682516 280.417991,76.9046683 L286.335571,72.4454524 Z M287.962483,74.6086193 C288.160485,74.8767396 288.357637,75.1455251 288.553936,75.4149719 L282.573281,79.7601724 C282.37569,79.4916564 282.177205,79.2238388 281.977831,78.9567241 L287.962483,74.6086193 Z M289.542282,76.7873301 C289.735581,77.0588553 289.928021,77.3310345 290.119599,77.6038635 L284.073892,81.8371126 C283.881011,81.5651892 283.687225,81.2939523 283.492539,81.0234064 L289.542282,76.7873301 Z M291.084002,78.9934129 C291.272537,79.268263 291.460203,79.5437555 291.646996,79.8198865 L285.538295,83.9402576 C285.350185,83.6650068 285.16116,83.3904304 284.971225,83.1165329 L291.084002,78.9934129 Z M292.58714,81.2262223 C292.770849,81.5043161 292.95368,81.7830408 293.135629,82.0623924 L286.965999,86.0689971 C286.782722,85.7904997 286.59852,85.5126648 286.413399,85.2354966 L292.58714,81.2262223 Z M294.051201,83.485104 C294.230025,83.7663591 294.407961,84.0482335 294.585007,84.3307235 L288.356524,88.2227114 C288.178141,87.9410495 287.998823,87.6600379 287.818575,87.379681 L294.051201,83.485104 Z M295.475701,85.7693939 C295.649581,86.0537269 295.822564,86.3386678 295.994648,86.6242125 L289.709398,90.4007714 C289.535967,90.1160281 289.361592,89.831923 289.186278,89.5484603 L295.475701,85.7693939 Z M296.860163,88.0784186 C297.029042,88.365745 297.197016,88.6536677 297.36408,88.9421827 L291.024157,92.6025385 C290.855737,92.314798 290.686364,92.0276835 290.516041,91.7411993 L296.860163,88.0784186 Z M298.204123,90.4114948 C298.367944,90.7017291 298.530852,90.992548 298.692841,91.2839476 L292.300348,94.8273643 C292.136995,94.5367121 291.97268,94.2466735 291.807405,93.957253 L298.204123,90.4114948 Z M299.507124,92.7679297 C299.665834,93.0609852 299.823622,93.3546136 299.980482,93.6488109 L293.537527,97.0745908 C293.379297,96.7811133 293.220094,96.4882372 293.059924,96.1959668 L299.507124,92.7679297 Z M300.776109,95.1612478 C300.929623,95.4570525 301.082206,95.7534183 301.233854,96.0503413 L294.742618,99.3577912 C294.589596,99.0615595 294.435594,98.7659169 294.280614,98.4708675 L300.776109,95.1612478 Z M301.99577,97.5627001 C302.144067,97.861149 302.291424,98.1601473 302.437838,98.4596909 L295.900377,101.648224 C295.752585,101.349343 295.603803,101.05104 295.454035,100.753317 L301.99577,97.5627001 Z M303.173163,99.9853692 C303.316193,100.286372 303.458275,100.587913 303.599406,100.889987 L297.017844,103.95902 C296.875332,103.657581 296.731821,103.356706 296.587316,103.0564 L303.173163,99.9853692 Z M304.307884,102.428522 C304.445598,102.731988 304.582357,103.035979 304.718157,103.340493 L298.094622,106.28948 C297.957439,105.985574 297.819248,105.682219 297.680056,105.379421 L304.307884,102.428522 Z M305.39954,104.891416 C305.531893,105.197252 305.663282,105.503603 305.793705,105.810463 L299.130328,108.638898 C298.99852,108.332617 298.865698,108.026874 298.731865,107.721676 L305.39954,104.891416 Z M306.447755,107.373298 C306.574701,107.681412 306.700677,107.990028 306.825679,108.299142 L300.124593,111.006556 C299.998206,110.697992 299.870796,110.389956 299.742369,110.08245 L306.447755,107.373298 Z M307.452168,109.873408 C307.573666,110.183704 307.694186,110.494491 307.813725,110.805764 L301.077063,113.391726 C300.956139,113.080975 300.834186,112.770738 300.711207,112.46102 L307.452168,109.873408 Z M308.412436,112.390973 C308.528444,112.703357 308.643469,113.016219 308.757504,113.329556 L301.987398,115.793674 C301.87198,115.48083 301.755524,115.168488 301.638036,114.856653 L308.412436,112.390973 Z M309.32823,114.925216 C309.438712,115.23959 309.548202,115.554432 309.656697,115.869736 L302.855279,118.211652 C302.745404,117.896813 302.634486,117.582463 302.522527,117.268607 L309.32823,114.925216 Z M310.20429,117.490561 C310.309175,117.806841 310.413062,118.123575 310.515949,118.44076 L303.685413,120.660135 C303.581154,120.343386 303.475844,120.027114 303.369487,119.711324 L310.20429,117.490561 Z M311.03006,120.056183 C311.129348,120.374257 311.227631,120.692774 311.324908,121.01173 L304.467317,123.108306 C304.368673,122.789757 304.268972,122.471673 304.168217,122.154059 L311.03006,120.056183 Z M311.810476,122.636087 C311.904135,122.955857 311.996785,123.276058 312.088421,123.596687 L305.205896,125.570219 C305.112899,125.24997 305.018839,124.930173 304.923719,124.610833 L311.810476,122.636087 Z M312.545289,125.229465 C312.633291,125.550831 312.720279,125.872617 312.806247,126.194818 L305.900905,128.045099 C305.813584,127.723249 305.725194,127.401839 305.635738,127.080874 L312.545289,125.229465 Z M313.234273,127.8355 C313.316593,128.158361 313.397892,128.481631 313.478167,128.805304 L306.552119,130.532162 C306.4705,130.208812 306.387806,129.885891 306.304042,129.563401 L313.234273,127.8355 Z M313.877223,130.453369 C313.953837,130.777625 314.029426,131.102277 314.103985,131.427321 L307.159333,133.030621 C307.08344,132.705873 307.006467,132.381541 306.928418,132.057628 L313.877223,130.453369 Z M314.473958,133.082248 C314.544846,133.407796 314.614704,133.733729 314.683529,134.060043 L307.722367,135.539683 C307.652221,135.213639 307.58099,134.887998 307.508678,134.562764 L314.473958,133.082248 Z M315.02432,135.721305 C315.089464,136.048044 315.153575,136.375156 315.216648,136.702637 L308.241063,138.058553 C308.176681,137.731315 308.11121,137.404467 308.044653,137.078014 L315.02432,135.721305 Z M315.528175,138.369708 C315.587562,138.697535 315.645911,139.025723 315.703219,139.35427 L308.715285,140.586431 C308.656683,140.258101 308.596987,139.93015 308.536201,139.602582 L315.528175,138.369708 Z M315.987994,141.042444 C316.041578,141.371262 316.094121,141.70043 316.145619,142.029944 L309.147462,143.138343 C309.094686,142.809019 309.040813,142.480062 308.985847,142.151475 L315.987994,141.042444 Z M316.398305,143.707401 C316.446112,144.037101 316.492874,144.36714 316.538588,144.697513 L309.532198,145.682197 C309.485223,145.351988 309.437147,145.022134 309.387974,144.692639 L316.398305,143.707401 Z M316.76185,146.379193 C316.803874,146.709672 316.844851,147.040479 316.884777,147.371609 L309.872193,148.232646 C309.831024,147.901656 309.78875,147.571008 309.745376,147.240707 L316.76185,146.379193 Z M317.078597,149.056986 C317.114837,149.388143 317.150028,149.719615 317.184165,150.051399 L310.167411,150.78889 C310.132049,150.457221 310.09558,150.125883 310.058008,149.79488 L317.078597,149.056986 Z M317.348542,151.739952 C317.379001,152.071682 317.408407,152.403717 317.436757,152.736054 L310.417843,153.350129 C310.388287,153.017885 310.357622,152.68596 310.325851,152.354358 L317.348542,151.739952 Z M317.57171,154.427263 C317.59639,154.759466 317.620017,155.091962 317.642587,155.424749 L310.623505,155.915571 C310.599751,155.582853 310.574885,155.250444 310.548913,154.918345 L317.57171,154.427263 Z M317.748143,157.118017 C317.767056,157.450599 317.784912,157.783464 317.801711,158.116608 L310.784441,158.484425 C310.76648,158.151336 310.747407,157.818544 310.727225,157.486051 L317.748148,157.1181 Z M317.877932,159.811616 C317.891087,160.144464 317.903184,160.477584 317.914222,160.810972 L310.900719,161.055908 C310.88854,160.72252 310.875248,160.389441 310.860845,160.05665 L317.877934,159.811649 Z M317.961169,162.507097 C317.96858,162.840113 317.974934,163.17339 317.980228,163.506924 L310.972434,163.629245 C310.966024,163.295715 310.958499,162.962458 310.949863,162.629477 L317.961169,162.507104 Z M317.995974,164.874577 C317.998358,165.20766 317.999684,165.540995 317.99995,165.874577 L310.998787,165.874577 C310.997299,165.54098 310.99479,165.207645 310.991169,164.874577 L317.995974,164.874577 Z M317.992151,167.571172 C317.988817,167.904734 317.984422,168.238043 317.978971,168.571094 L310.987353,168.449055 C310.991643,168.115993 310.994874,167.782664 310.99699,167.449071 L317.992184,167.571172 Z M317.942013,170.267507 C317.932941,170.600957 317.922808,170.934142 317.911619,171.26706 L310.9315,171.023304 C310.941597,170.690359 310.950583,170.357135 310.958455,170.023635 L317.942013,170.267507 Z M317.845401,172.9628 C317.830573,173.296037 317.814686,173.628997 317.797743,173.96168 L310.831133,173.596561 C310.847003,173.263836 310.861762,172.930819 310.875408,172.597516 L317.845401,172.962791 Z M317.70218,175.656223 C317.681582,175.989153 317.659926,176.321796 317.637216,176.65415 L310.686067,176.168051 C310.707722,175.835647 310.72827,175.50294 310.747704,175.169935 L317.70218,175.656223 Z M317.512236,178.347027 C317.485859,178.67952 317.458426,179.011717 317.42994,179.343612 L310.496191,178.736988 C310.523643,178.405024 310.54999,178.072708 310.575227,177.740083 L317.512238,178.346992 Z M317.275493,181.034279 C317.243328,181.366267 317.210109,181.697946 317.175839,182.029313 L310.261423,181.302579 C310.294682,180.971113 310.326836,180.639322 310.357882,180.307209 L317.275493,181.034279 Z M316.991889,183.717257 C316.953932,184.048625 316.914924,184.379673 316.874867,184.710398 L309.981708,183.864025 C310.020776,183.533186 310.058742,183.202009 310.095602,182.870499 L316.991889,183.717257 Z M316.659266,186.411185 C316.615482,186.741825 316.570649,187.072135 316.52477,187.40211 L309.654826,186.436602 C309.699742,186.106499 309.743558,185.776047 309.78627,185.445248 L316.659266,186.411185 Z M316.281681,189.082458 C316.232109,189.412273 316.18149,189.741745 316.129828,190.070872 L309.284951,188.98675 C309.335673,188.657481 309.385299,188.327851 309.433824,187.997864 L316.281681,189.082458 Z M315.857249,191.746909 C315.801894,192.075795 315.745495,192.404327 315.688058,192.732502 L308.870135,191.530318 C308.926658,191.201989 308.982089,190.873286 309.036422,190.544213 L315.857249,191.746909 Z M315.386021,194.403697 C315.324891,194.731552 315.262722,195.059041 315.199518,195.386161 L308.410426,194.066496 C308.472742,193.739209 308.533968,193.411536 308.594102,193.083482 L315.386021,194.403697 Z M314.868072,197.051983 C314.80118,197.378703 314.733253,197.705046 314.664295,198.031009 L307.905897,196.594467 C307.973993,196.268327 308.041004,195.941789 308.106926,195.614857 L314.868072,197.051983 Z M314.303505,199.690925 C314.230866,200.016408 314.157197,200.341503 314.082501,200.666206 L307.356646,199.11342 C307.430506,198.78853 307.503287,198.46323 307.574984,198.137523 L314.303505,199.690925 Z M313.692448,202.319684 C313.61408,202.643829 313.534686,202.967573 313.454271,203.290914 L306.762794,201.622541 C306.842402,201.299005 306.920935,200.975046 306.998388,200.650668 L313.692448,202.319684 Z M313.035052,204.937426 C312.950975,205.26013 312.865879,205.582422 312.779766,205.904298 L306.124489,204.121022 C306.209822,203.798942 306.294086,203.476427 306.377276,203.15348 L313.035052,204.937426 Z M312.331492,207.543316 C312.241732,207.864478 312.150956,208.185216 312.059169,208.505528 L305.441898,206.608056 C305.532933,206.287534 305.622905,205.966565 305.711808,205.645152 L312.331492,207.543316 Z M311.586554,210.121166 C311.491169,210.440696 311.394775,210.759791 311.297375,211.078447 L304.719866,209.0675 C304.816541,208.748628 304.912159,208.429295 305.006714,208.109507 L311.586554,210.121166 Z M310.791655,212.700646 C310.690642,213.018435 310.588626,213.335777 310.48561,213.652668 L303.949674,211.529014 C304.051995,211.211901 304.153263,210.894316 304.253476,210.576263 L310.791655,212.700646 Z M309.951264,215.265818 C309.844655,215.581767 309.737048,215.897257 309.628448,216.212284 L303.135845,213.976702 C303.243779,213.661449 303.350668,213.345712 303.456507,213.029494 L309.951264,215.265818 Z M309.065644,217.815872 C308.953472,218.129883 308.84031,218.443422 308.72616,218.756488 L302.278634,216.40978 C302.392146,216.096487 302.504621,215.782696 302.616053,215.468413 L309.065644,217.815872 Z M308.135078,220.350003 C308.01738,220.661979 307.898698,220.973471 307.779037,221.284477 L301.378315,218.82747 C301.497369,218.516235 301.615392,218.204489 301.73238,217.892238 L308.135078,220.350003 Z M307.159869,222.867417 C307.036684,223.17726 306.912522,223.486609 306.787387,223.795459 L300.43518,221.229001 C300.559737,220.91992 300.683271,220.610318 300.805776,220.300197 L307.159869,222.867417 Z M306.140337,225.367324 C306.011706,225.67494 305.882105,225.982049 305.751539,226.288649 L299.449541,223.61361 C299.57956,223.306781 299.708562,222.999417 299.836545,222.691522 L306.140337,225.367324 Z M305.076823,227.848945 C304.942788,228.154239 304.807791,228.459016 304.671837,228.76327 L298.421726,225.980541 C298.557163,225.676059 298.691591,225.37103 298.825007,225.065457 L305.076823,227.848945 Z M303.96968,230.31151 C303.830287,230.614389 303.68994,230.916739 303.548643,231.218555 L297.35208,228.32905 C297.492888,228.027009 297.632697,227.724408 297.771502,227.421252 L303.96968,230.31151 Z M302.826238,232.739816 C302.681565,233.040203 302.535946,233.340049 302.389384,233.63935 L296.24799,230.643992 C296.394091,230.344469 296.5392,230.044374 296.683314,229.743711 L302.826238,232.739816 Z M301.633369,235.161827 C301.483433,235.459617 301.33256,235.756854 301.180752,236.053533 L295.096177,232.953287 C295.247553,232.656391 295.397946,232.358909 295.547353,232.060847 L301.633369,235.161827 Z M300.398037,237.562539 C300.242889,237.857642 300.086812,238.152179 299.929809,238.446148 L293.903662,235.241989 C294.060262,234.947808 294.215889,234.653031 294.370538,234.357661 L300.398037,237.562539 Z M299.120656,239.941219 C298.960349,240.233546 298.79912,240.525295 298.636974,240.816464 L292.670846,237.509385 C292.832619,237.218012 292.993426,236.926029 293.153265,236.63344 L299.120656,239.941219 Z M297.801654,242.297144 C297.63624,242.586606 297.469913,242.875479 297.302677,243.16376 L291.398145,239.754777 C291.565035,239.466298 291.73097,239.177198 291.895945,238.887481 L297.801654,242.297144 Z M296.44147,244.629598 C296.271003,244.916109 296.099634,245.20202 295.927365,245.487326 L290.085985,241.977471 C290.257937,241.691976 290.428943,241.405847 290.598999,241.119088 L296.44147,244.629598 Z M295.040554,246.937878 C294.865092,247.221352 294.688736,247.504214 294.51149,247.786461 L288.734804,244.176787 C288.911761,243.894361 289.087782,243.611289 289.262862,243.327575 L295.040554,246.937878 Z M293.599369,249.221289 C293.41897,249.501641 293.237685,249.781371 293.05552,250.060473 L287.34505,246.35205 C287.526954,246.07278 287.707931,245.792851 287.887977,245.512268 L293.599369,249.221289 Z M292.118387,251.479144 C291.933109,251.756292 291.746956,252.032805 291.559931,252.308679 L285.917183,248.502597 C286.103965,248.226578 286.28984,247.949876 286.474793,247.672508 L292.118387,251.479144 Z M290.607224,253.69761 C290.417159,253.971487 290.226227,254.244717 290.034434,254.517297 L284.460886,250.614657 C284.652473,250.341929 284.843153,250.068517 285.032922,249.794426 L290.607231,253.6976 Z M288.941086,256.051223 C288.745942,256.321501 288.549942,256.59112 288.353092,256.860077 L282.850323,252.862081 C283.047004,252.59301 283.242795,252.323235 283.437686,252.052769 L288.941091,256.051216 Z M287.339897,258.228519 C287.140056,258.495343 286.93937,258.761496 286.737842,259.026975 L281.307203,254.934686 C281.508588,254.669103 281.709089,254.402813 281.9087,254.135819 L287.339901,258.228514 Z M285.700897,260.377475 C285.496426,260.640762 285.291119,260.903367 285.084981,261.165287 L279.727899,256.979876 C279.933921,256.717868 280.139068,256.45514 280.343337,256.191696 L285.700897,260.377475 Z M284.024602,262.49746 C283.815565,262.757132 283.605703,263.016111 283.395019,263.274394 L278.112921,258.997031 C278.323512,258.738678 278.533241,258.479591 278.742102,258.219776 L284.024604,262.497458 Z M282.311552,264.587829 C282.098015,264.843808 281.883663,265.099083 281.6685,265.353651 L276.462785,260.985538 C276.677881,260.730915 276.892124,260.475547 277.10551,260.219441 L282.311552,264.587829 Z M280.562279,266.647963 C280.344309,266.900174 280.125534,267.151669 279.905959,267.402446 L274.778016,262.944793 C274.997547,262.693979 275.216237,262.442409 275.43408,262.190088 L280.562279,266.647963 Z M278.777332,268.677245 C278.554997,268.925612 278.331868,269.173252 278.107948,269.420163 L273.059145,264.8742 C273.283044,264.627271 273.506111,264.379575 273.728343,264.131116 L278.777332,268.677245 Z M276.957264,270.675067 C276.730633,270.919515 276.503218,271.163225 276.275023,271.406195 L271.306742,266.773198 C271.534909,266.530202 271.762284,266.286455 271.988836,266.041933 L276.957264,270.675067 Z M275.102638,272.640827 C274.87178,272.881282 274.640149,273.12099 274.40775,273.359945 L269.521276,268.641132 C269.753689,268.40219 269.985302,268.162466 270.216103,267.921955 L275.102657,272.640846 Z M273.225322,274.562565 C273.121893,274.666621 273.018317,274.77053 272.914594,274.874291 L268.111293,270.07099 C268.215015,269.967228 268.318583,269.86331 268.421995,269.759238 L273.225322,274.562565 Z" id="shape-3" opacity="0.5" ></path>
                <path d="M62.0308995,267.676207 C61.794313,267.441391 61.5585373,267.205759 61.323577,266.969316 L72.2453849,256.047508 C72.4814098,256.282894 72.7183447,256.517367 72.9561839,256.750923 L62.0308995,267.676207 Z M40.9187593,241.120922 C40.7434211,240.837492 40.5690388,240.553409 40.3956167,240.268677 L53.4417243,232.274012 C53.6163842,232.557999 53.792117,232.841255 53.9689173,233.123775 L40.9187593,241.120922 Z M26.4693677,209.947569 C26.3665395,209.630625 26.2647806,209.313199 26.1640951,208.995296 L40.5830338,204.310299 C40.6848479,204.627855 40.7878631,204.944873 40.8920741,205.261348 L26.4693677,209.947569 Z M19.8988426,176.68144 C19.8732638,176.349314 19.8488116,176.016873 19.8254901,175.684121 L34.8131469,174.504566 C34.8374034,174.837275 34.8629262,175.169632 34.8897105,175.501633 L19.8988426,176.68144 Z M21.1579944,143.343268 C21.2088257,143.013637 21.260775,142.684375 21.313838,142.355486 L36.0672799,144.692202 C36.0150095,145.021195 35.9639873,145.350604 35.9142182,145.680424 L21.1579944,143.343268 Z M30.2474823,110.705726 C30.3743705,110.397378 30.5022981,110.089568 30.6312606,109.7823 L44.3659615,115.471399 C44.2374269,115.778833 44.1100522,116.086873 43.9838429,116.395513 L30.2474823,110.705726 Z M46.8781504,80.9371349 C47.0740549,80.6673998 47.2708726,80.398371 47.468599,80.1300529 L59.461125,88.843133 C59.2634154,89.111458 59.0667237,89.380579 58.8710555,89.6504904 L46.8781504,80.9371349 Z M69.8276985,56.0698742 C70.0808195,55.8530094 70.3347018,55.6370078 70.5893411,55.4218741 L80.2128303,66.6895322 C79.9579558,66.9043919 79.7039284,67.1202244 79.4507536,67.3370241 L69.8276985,56.0698742 Z M98.085754,37.133687 C98.382574,36.9821637 98.6799893,36.8316398 98.9779953,36.6821198 L105.720316,49.9146696 C105.421946,50.0634897 105.124236,50.2134358 104.827191,50.3645022 L98.085754,37.133687 Z M129.805913,25.4247795 C130.129927,25.3471788 130.454366,25.2706734 130.779227,25.1952674 L134.261119,39.6983898 C133.935978,39.7727003 133.611308,39.8482436 133.287112,39.9250145 L129.805913,25.4247795 Z M163,21.4694968 C163.156192,21.468999 163.312442,21.46875 163.46875,21.46875 C163.645908,21.46875 163.822992,21.4690699 164,21.4697092 L164,36.4723896 C163.674414,36.4699646 163.348541,36.46875 163.022383,36.46875 C163.014922,36.46875 163.007461,36.4687506 163,36.4687519 L163,21.4694433 Z M196.569373,25.2913307 C196.894007,25.3676943 197.218216,25.4451565 197.541998,25.5237131 L194.011651,40.228666 C193.68825,40.1486229 193.364365,40.0698041 193.040003,39.9922147 L196.569373,25.2913307 Z M228.804264,37.1094593 C229.101277,37.2609419 229.397694,37.413425 229.693511,37.5669043 L222.765048,51.1647788 C222.470072,51.0096816 222.174419,50.855697 221.878096,50.7028308 L228.804264,37.1094593 Z M256.887545,55.8798416 C257.141129,56.0962171 257.393954,56.3134574 257.646014,56.5315577 L247.642258,68.2444503 C247.391414,68.0249396 247.139708,67.8063885 246.887147,67.5888026 L256.887545,55.8798416 Z M279.838306,80.6336162 C280.034869,80.9027843 280.230521,81.1726601 280.425257,81.443239 L267.844105,90.5839807 C267.650846,90.3123303 267.456558,90.0414633 267.261245,89.7713854 L279.838306,80.6336162 Z M296.426917,110.07071 C296.555207,110.378259 296.682462,110.686348 296.808676,110.994972 L282.307018,117.001756 C282.182389,116.692467 282.056592,116.383773 281.929633,116.075682 L296.426917,110.07071 Z M305.650041,142.519591 C305.702724,142.848542 305.754292,143.177864 305.804742,143.507554 L290.175827,145.982931 C290.126844,145.652989 290.076606,145.323455 290.02512,144.994336 L305.650041,142.519591 Z M307.067488,176.300536 C307.042751,176.63318 307.016883,176.96551 306.989889,177.297521 L291.109835,176.047734 C291.138025,175.715847 291.164955,175.383601 291.190619,175.050999 L307.067488,176.300536 Z M300.872183,208.682164 C300.772227,209.000302 300.671197,209.317965 300.569097,209.635147 L285.340306,204.687013 C285.443017,204.370047 285.544531,204.05254 285.644841,203.7345 L300.872183,208.682164 Z M286.978721,239.546702 C286.806968,239.832451 286.634251,240.117555 286.460575,240.402009 L272.765274,232.009517 C272.939184,231.725214 273.11202,231.440183 273.283777,231.154429 L286.978721,239.546702 Z M266.142125,266.435018 C265.90839,266.67268 265.673836,266.909534 265.438468,267.145575 L254.069858,255.776965 C254.305186,255.540882 254.539602,255.30389 254.7731,255.065993 L266.142125,266.435018 Z" id="shape-5" opacity="0.5"></path>

                <path d="M52.2354643,277.681192 C23.6675734,249.092115 6,209.609299 6,166 C6,78.7390095 76.7390095,8 164,8 C251.26099,8 322,78.7390095 322,166 C322,209.645672 304.302943,249.157974 275.693031,277.752704 " id="circle-4" fill-rule="nonzero"></path>

                <path d="M75.5729788,254.349657 C52.9751559,231.73217 39,200.498121 39,166 C39,96.9644063 94.9644063,41 164,41 C233.035594,41 289,96.9644063 289,166 C289,200.532973 274.996593,231.795275 252.358506,254.418179 " id="circle-5" fill-rule="nonzero" opacity="0.5"></path>

                <path d="M46.4739185,283.233188 C46.2385066,282.997192 46.003801,282.760491 45.769805,282.523088 L52.8410669,275.451826 C53.0749569,275.689334 53.3095987,275.926099 53.5449921,276.162115 L46.4739184,283.233188 Z M5.8664173,216.641873 C5.76486159,216.324496 5.66423486,216.006703 5.56454032,215.688497 L15.0782098,212.597318 C15.177696,212.915598 15.2781745,213.23344 15.3796415,213.55084 L5.8664173,216.641873 Z M0.0249129483,139.996117 C0.0767431432,139.666668 0.129542372,139.337541 0.183307626,139.008739 L10.0618316,140.573343 C10.0079366,140.902114 9.95506938,141.23123 9.90323338,141.560689 L0.0249129483,139.996117 Z M29.6788744,68.4411294 C29.8750019,68.1715619 30.0719211,67.9026074 30.2696286,67.6342695 L38.3605177,73.5126445 C38.1627104,73.780907 37.9657418,74.0498258 37.7696156,74.319397 L29.6788744,68.4411294 Z M88.4203832,18.1643287 C88.7169977,18.0123831 89.0141294,17.8613038 89.311775,17.7110944 L93.8526985,26.6231584 C93.5550039,26.7732806 93.2578559,26.9243284 92.9612585,27.0762982 L88.4203832,18.1643287 Z M163,0.0029487887 C163.333102,0.000983844081 163.666436,0 164,0 L164,10 C163.666421,10 163.333087,10.001047 163,10.0031379 L163,0.00273850102 Z M238.688225,17.7110944 C238.985871,17.8613038 239.283002,18.0123831 239.579617,18.1643287 L235.038742,27.0762982 C234.742144,26.9243284 234.444996,26.7732806 234.147302,26.6231584 L238.688225,17.7110944 Z M297.730371,67.6342695 C297.928079,67.9026074 298.124998,68.1715619 298.321126,68.4411294 L290.230384,74.319397 C290.034258,74.0498258 289.83729,73.780907 289.639482,73.5126445 L297.730371,67.6342695 Z M327.816692,139.008739 C327.870458,139.337541 327.923257,139.666668 327.975087,139.996117 L318.096767,141.560689 C318.044931,141.23123 317.992063,140.902114 317.938168,140.573343 L327.816692,139.008739 Z M322.43546,215.688497 C322.335765,216.006703 322.235138,216.324496 322.133583,216.641873 L312.620358,213.55084 C312.721826,213.23344 312.822304,212.915598 312.92179,212.597318 L322.43546,215.688497 Z M282.230195,282.523088 C281.996199,282.760491 281.761493,282.997192 281.526081,283.233188 L274.455008,276.162115 C274.690401,275.926099 274.925043,275.689334 275.158929,275.451823 L282.230199,282.523092 Z" id="shape-6" opacity="0.5"></path>
            </g>
        </g>
    </g>
</svg>