<?xml version="1.0" encoding="UTF-8"?>
<svg width="13px" height="13px" viewBox="0 0 13 13" version="1.1" xmlns="http://www.w3.org/2000/svg" xmlns:xlink="http://www.w3.org/1999/xlink">
    <!-- Generator: Sketch 49.2 (51160) - http://www.bohemiancoding.com/sketch -->
    <title>Shape</title>
    <desc>Created with Sketch.</desc>
    <defs>
        <linearGradient x1="61.8177899%" y1="98.4617108%" x2="39.6373327%" y2="15.2954294%" id="linearGradient-1">
            <stop stop-color="#FF3057" offset="0%"></stop>
            <stop stop-color="#982729" offset="100%"></stop>
        </linearGradient>
        <path d="M7.82581512,13.8728171 L5.77641008,15.9213555 C4.40070289,17.2973516 2.2181183,17.3662525 0.925901104,16.0740353 C-0.366316088,14.7818181 -0.297415171,12.5990891 1.0791587,11.223093 L3.38611161,8.91484006 C4.74361856,7.55819979 6.8846026,7.47340977 8.18317543,8.71073734 C8.19314223,8.7202708 8.20397571,8.72850425 8.21307583,8.73789326 C8.21582031,8.74063774 8.21943147,8.7442489 8.22130927,8.74656004 C8.22679824,8.75248234 8.23214275,8.75696018 8.23763171,8.76244914 L8.23575391,8.76389361 C8.60481438,9.15779885 8.59759206,9.77588485 8.21307583,10.1604011 C7.82047061,10.5530063 7.18389547,10.5530063 6.7911458,10.1604011 C6.79027913,10.1589566 6.78666797,10.1553455 6.78666797,10.1553455 C6.19183783,9.56094866 5.19978019,9.60442701 4.56407173,10.2397021 L2.40315409,12.4007642 C1.76831231,13.035606 1.73393408,14.0751865 2.32963089,14.67045 C2.9253277,15.2657134 3.96461931,15.2322019 4.59946109,14.5969268 L5.4001273,13.7962606 C5.4001273,13.7962606 5.7655766,13.9376736 6.47466381,14.0093189 C7.16020627,14.0790865 7.82581512,13.8728171 7.82581512,13.8728171 Z M12.0742716,4.92580921 C10.7820545,3.63359202 8.59845874,3.70292627 7.22376267,5.07848902 L5.17435763,7.12702739 C5.17435763,7.12702739 5.83996648,6.92061353 6.52550894,6.99052557 C7.23459615,7.06217097 7.59917878,7.20416175 7.59917878,7.20416175 L8.40085611,6.40291775 C9.03569789,5.76807597 10.074845,5.73470886 10.6696752,6.32997234 C11.2655164,6.92480247 11.2318604,7.96496076 10.5971631,8.59922475 L8.43624547,10.7602868 C7.80053701,11.395562 6.80847937,11.4390403 6.21364923,10.8444991 C6.21364923,10.8444991 6.21003807,10.8408879 6.20917139,10.8394434 C5.81656617,10.4468382 5.17999103,10.4468382 4.78724137,10.8394434 C4.40185846,11.224393 4.39463614,11.8423346 4.76369661,12.2363843 L4.76282993,12.2378287 C4.76831889,12.2431732 4.77366341,12.2473622 4.77915237,12.2532845 C4.78103017,12.2554512 4.78464133,12.2590623 4.78637469,12.2622401 C4.79634149,12.2717736 4.80717496,12.2795737 4.81714176,12.2886738 C6.11571459,13.5264347 8.25583196,13.4420781 9.61420558,12.0850045 L11.9211585,9.77675153 C13.2975879,8.40104434 13.3664888,6.21744862 12.0742716,4.92580921 Z" id="path-2"></path>
    </defs>
    <g id="design-3" stroke="none" stroke-width="1" fill="none" fill-rule="evenodd">
        <g id="bcb-ico-1366-v2" transform="translate(-643.000000, -605.000000)" fill-rule="nonzero">
            <g id="Group-87" transform="translate(456.000000, 475.000000)">
                <g id="Group-86" transform="translate(187.000000, 126.000000)">
                    <g id="Shape">
                        <use fill="url(#linearGradient-1)" fill-rule="evenodd" xlink:href="#path-2"></use>
                        <use fill-opacity="0.0799999982" fill="#FFFFFF" fill-rule="evenodd" xlink:href="#path-2"></use>
                        <use fill="#FFB600" fill-rule="evenodd" xlink:href="#path-2"></use>
                    </g>
                </g>
            </g>
        </g>
    </g>
</svg>