<?xml version="1.0" encoding="UTF-8"?>
<svg width="33px" height="33px" viewBox="0 0 33 33" version="1.1" xmlns="http://www.w3.org/2000/svg" xmlns:xlink="http://www.w3.org/1999/xlink">
    <!-- Generator: Sketch 49.2 (51160) - http://www.bohemiancoding.com/sketch -->
    <title>team-plus</title>
    <desc>Created with Sketch.</desc>
    <defs></defs>
    <g id="design" stroke="none" stroke-width="1" fill="none" fill-rule="evenodd">
        <g id="bcb-ico-1366" transform="translate(-1237.000000, -7027.000000)" fill="#FFB600" fill-rule="nonzero">
            <g id="7-team" transform="translate(0.000000, 6560.000000)">
                <g id="Group-53" transform="translate(0.000000, 84.000000)">
                    <g id="Group-40" transform="translate(1139.000000, 276.000000)">
                        <g id="team-plus" transform="translate(98.000000, 107.000000)">
                            <path d="M16.5,31 C24.5081289,31 31,24.5081289 31,16.5 C31,8.49187113 24.5081289,2 16.5,2 C8.49187113,2 2,8.49187113 2,16.5 C2,24.5081289 8.49187113,31 16.5,31 Z M16.5,33 C7.38730163,33 0,25.6126984 0,16.5 C0,7.38730163 7.38730163,0 16.5,0 C25.6126984,0 33,7.38730163 33,16.5 C33,25.6126984 25.6126984,33 16.5,33 Z M16.3421053,8.52631579 L16.6578947,8.52631579 C17.2101795,8.52631579 17.6578947,8.97403104 17.6578947,9.52631579 L17.6578947,23.4763156 C17.6578947,24.0286003 17.2101795,24.4763156 16.6578947,24.4763156 L16.3421053,24.4763156 C15.7898205,24.4763156 15.3421053,24.0286003 15.3421053,23.4763156 L15.3421053,9.52631579 C15.3421053,8.97403104 15.7898205,8.52631579 16.3421053,8.52631579 Z M24.4771051,16.3413157 L24.4771051,16.6613157 C24.4771051,17.2136004 24.0293899,17.6613157 23.4771051,17.6613157 L9.52710533,17.6613157 C8.97482058,17.6613157 8.52710533,17.2136004 8.52710533,16.6613157 L8.52710533,16.3413157 C8.52710533,15.789031 8.97482058,15.3413157 9.52710533,15.3413157 L23.4771051,15.3413157 C24.0293899,15.3413157 24.4771051,15.789031 24.4771051,16.3413157 Z" id="Combined-Shape"></path>
                        </g>
                    </g>
                </g>
            </g>
        </g>
    </g>
</svg>