<?xml version="1.0" encoding="UTF-8"?>
<svg width="1721px" height="9px" viewBox="0 0 1721 9" version="1.1" xmlns="http://www.w3.org/2000/svg" xmlns:xlink="http://www.w3.org/1999/xlink">
    <!-- Generator: Sketch 49.2 (51160) - http://www.bohemiancoding.com/sketch -->
    <title>Combined Shape</title>
    <desc>Created with Sketch.</desc>
    <defs></defs>
    <g id="design-3" stroke="none" stroke-width="1" fill="none" fill-rule="evenodd">
        <g id="Artboard" transform="translate(-68.000000, -2046.000000)" fill="#A3A3B2">
            <path d="M1012,2046.18733 L1012,2046 L1013,2046 L1013,2046.18733 L1013,2054.81267 L1013,2055 L1012,2055 L1012,2054.81267 L1012,2046.18733 Z M1020,2046.18733 L1020,2046 L1021,2046 L1021,2046.18733 L1021,2054.81267 L1021,2055 L1020,2055 L1020,2054.81267 L1020,2046.18733 Z M1028,2046.18733 L1028,2046 L1029,2046 L1029,2046.18733 L1029,2054.81267 L1029,2055 L1028,2055 L1028,2054.81267 L1028,2046.18733 Z M1036,2046.18733 L1036,2046 L1037,2046 L1037,2046.18733 L1037,2054.81267 L1037,2055 L1036,2055 L1036,2054.81267 L1036,2046.18733 Z M1044,2046.18733 L1044,2046 L1045,2046 L1045,2046.18733 L1045,2054.81267 L1045,2055 L1044,2055 L1044,2054.81267 L1044,2046.18733 Z M1052,2046.18733 L1052,2046 L1053,2046 L1053,2046.18733 L1053,2054.81267 L1053,2055 L1052,2055 L1052,2054.81267 L1052,2046.18733 Z M1060,2046.18733 L1060,2046 L1061,2046 L1061,2046.18733 L1061,2054.81267 L1061,2055 L1060,2055 L1060,2054.81267 L1060,2046.18733 Z M1068,2046.18733 L1068,2046 L1069,2046 L1069,2046.18733 L1069,2054.81267 L1069,2055 L1068,2055 L1068,2054.81267 L1068,2046.18733 Z M1076,2046.18733 L1076,2046 L1077,2046 L1077,2046.18733 L1077,2054.81267 L1077,2055 L1076,2055 L1076,2054.81267 L1076,2046.18733 Z M1084,2046.18733 L1084,2046 L1085,2046 L1085,2046.18733 L1085,2054.81267 L1085,2055 L1084,2055 L1084,2054.81267 L1084,2046.18733 Z M1092,2046.18733 L1092,2046 L1093,2046 L1093,2046.18733 L1093,2054.81267 L1093,2055 L1092,2055 L1092,2054.81267 L1092,2046.18733 Z M1100,2046.18733 L1100,2046 L1101,2046 L1101,2046.18733 L1101,2054.81267 L1101,2055 L1100,2055 L1100,2054.81267 L1100,2046.18733 Z M1108,2046.18733 L1108,2046 L1109,2046 L1109,2046.18733 L1109,2054.81267 L1109,2055 L1108,2055 L1108,2054.81267 L1108,2046.18733 Z M1116,2046.18733 L1116,2046 L1117,2046 L1117,2046.18733 L1117,2054.81267 L1117,2055 L1116,2055 L1116,2054.81267 L1116,2046.18733 Z M1124,2046.18733 L1124,2046 L1125,2046 L1125,2046.18733 L1125,2054.81267 L1125,2055 L1124,2055 L1124,2054.81267 L1124,2046.18733 Z M1132,2046.18733 L1132,2046 L1133,2046 L1133,2046.18733 L1133,2054.81267 L1133,2055 L1132,2055 L1132,2054.81267 L1132,2046.18733 Z M1140,2046.18733 L1140,2046 L1141,2046 L1141,2046.18733 L1141,2054.81267 L1141,2055 L1140,2055 L1140,2054.81267 L1140,2046.18733 Z M1148,2046.18733 L1148,2046 L1149,2046 L1149,2046.18733 L1149,2054.81267 L1149,2055 L1148,2055 L1148,2054.81267 L1148,2046.18733 Z M1156,2046.18733 L1156,2046 L1157,2046 L1157,2046.18733 L1157,2054.81267 L1157,2055 L1156,2055 L1156,2054.81267 L1156,2046.18733 Z M1164,2046.18733 L1164,2046 L1165,2046 L1165,2046.18733 L1165,2054.81267 L1165,2055 L1164,2055 L1164,2054.81267 L1164,2046.18733 Z M1172,2046.18733 L1172,2046 L1173,2046 L1173,2046.18733 L1173,2054.81267 L1173,2055 L1172,2055 L1172,2054.81267 L1172,2046.18733 Z M1180,2046.18733 L1180,2046 L1181,2046 L1181,2046.18733 L1181,2054.81267 L1181,2055 L1180,2055 L1180,2054.81267 L1180,2046.18733 Z M1188,2046.18733 L1188,2046 L1189,2046 L1189,2046.18733 L1189,2054.81267 L1189,2055 L1188,2055 L1188,2054.81267 L1188,2046.18733 Z M1196,2046.18733 L1196,2046 L1197,2046 L1197,2046.18733 L1197,2054.81267 L1197,2055 L1196,2055 L1196,2054.81267 L1196,2046.18733 Z M1204,2046.18733 L1204,2046 L1205,2046 L1205,2046.18733 L1205,2054.81267 L1205,2055 L1204,2055 L1204,2054.81267 L1204,2046.18733 Z M1212,2046.18733 L1212,2046 L1213,2046 L1213,2046.18733 L1213,2054.81267 L1213,2055 L1212,2055 L1212,2054.81267 L1212,2046.18733 Z M1220,2046.18733 L1220,2046 L1221,2046 L1221,2046.18733 L1221,2054.81267 L1221,2055 L1220,2055 L1220,2054.81267 L1220,2046.18733 Z M1228,2046.18733 L1228,2046 L1229,2046 L1229,2046.18733 L1229,2054.81267 L1229,2055 L1228,2055 L1228,2054.81267 L1228,2046.18733 Z M1236,2046.18733 L1236,2046 L1237,2046 L1237,2046.18733 L1237,2054.81267 L1237,2055 L1236,2055 L1236,2054.81267 L1236,2046.18733 Z M1244,2046.18733 L1244,2046 L1245,2046 L1245,2046.18733 L1245,2054.81267 L1245,2055 L1244,2055 L1244,2054.81267 L1244,2046.18733 Z M1252,2046.18733 L1252,2046 L1253,2046 L1253,2046.18733 L1253,2054.81267 L1253,2055 L1252,2055 L1252,2054.81267 L1252,2046.18733 Z M1260,2046.18733 L1260,2046 L1261,2046 L1261,2046.18733 L1261,2054.81267 L1261,2055 L1260,2055 L1260,2054.81267 L1260,2046.18733 Z M1268,2046.18733 L1268,2046 L1269,2046 L1269,2046.18733 L1269,2054.81267 L1269,2055 L1268,2055 L1268,2054.81267 L1268,2046.18733 Z M1276,2046.18733 L1276,2046 L1277,2046 L1277,2046.18733 L1277,2054.81267 L1277,2055 L1276,2055 L1276,2054.81267 L1276,2046.18733 Z M1284,2046.18733 L1284,2046 L1285,2046 L1285,2046.18733 L1285,2054.81267 L1285,2055 L1284,2055 L1284,2054.81267 L1284,2046.18733 Z M1292,2046.18733 L1292,2046 L1293,2046 L1293,2046.18733 L1293,2054.81267 L1293,2055 L1292,2055 L1292,2054.81267 L1292,2046.18733 Z M1300,2046.18733 L1300,2046 L1301,2046 L1301,2046.18733 L1301,2054.81267 L1301,2055 L1300,2055 L1300,2054.81267 L1300,2046.18733 Z M1308,2046.18733 L1308,2046 L1309,2046 L1309,2046.18733 L1309,2054.81267 L1309,2055 L1308,2055 L1308,2054.81267 L1308,2046.18733 Z M1316,2046.18733 L1316,2046 L1317,2046 L1317,2046.18733 L1317,2054.81267 L1317,2055 L1316,2055 L1316,2054.81267 L1316,2046.18733 Z M1324,2046.18733 L1324,2046 L1325,2046 L1325,2046.18733 L1325,2054.81267 L1325,2055 L1324,2055 L1324,2054.81267 L1324,2046.18733 Z M1332,2046.18733 L1332,2046 L1333,2046 L1333,2046.18733 L1333,2054.81267 L1333,2055 L1332,2055 L1332,2054.81267 L1332,2046.18733 Z M1340,2046.18733 L1340,2046 L1341,2046 L1341,2046.18733 L1341,2054.81267 L1341,2055 L1340,2055 L1340,2054.81267 L1340,2046.18733 Z M1348,2046.18733 L1348,2046 L1349,2046 L1349,2046.18733 L1349,2054.81267 L1349,2055 L1348,2055 L1348,2054.81267 L1348,2046.18733 Z M1356,2046.18733 L1356,2046 L1357,2046 L1357,2046.18733 L1357,2054.81267 L1357,2055 L1356,2055 L1356,2054.81267 L1356,2046.18733 Z M1364,2046.18733 L1364,2046 L1365,2046 L1365,2046.18733 L1365,2054.81267 L1365,2055 L1364,2055 L1364,2054.81267 L1364,2046.18733 Z M1372,2046.18733 L1372,2046 L1373,2046 L1373,2046.18733 L1373,2054.81267 L1373,2055 L1372,2055 L1372,2054.81267 L1372,2046.18733 Z M1380,2046.18733 L1380,2046 L1381,2046 L1381,2046.18733 L1381,2054.81267 L1381,2055 L1380,2055 L1380,2054.81267 L1380,2046.18733 Z M1388,2046.18733 L1388,2046 L1389,2046 L1389,2046.18733 L1389,2054.81267 L1389,2055 L1388,2055 L1388,2054.81267 L1388,2046.18733 Z M1396,2046.18733 L1396,2046 L1397,2046 L1397,2046.18733 L1397,2054.81267 L1397,2055 L1396,2055 L1396,2054.81267 L1396,2046.18733 Z M1404,2046.18733 L1404,2046 L1405,2046 L1405,2046.18733 L1405,2054.81267 L1405,2055 L1404,2055 L1404,2054.81267 L1404,2046.18733 Z M1412,2046.18733 L1412,2046 L1413,2046 L1413,2046.18733 L1413,2054.81267 L1413,2055 L1412,2055 L1412,2054.81267 L1412,2046.18733 Z M1420,2046.18733 L1420,2046 L1421,2046 L1421,2046.18733 L1421,2054.81267 L1421,2055 L1420,2055 L1420,2054.81267 L1420,2046.18733 Z M1428,2046.18733 L1428,2046 L1429,2046 L1429,2046.18733 L1429,2054.81267 L1429,2055 L1428,2055 L1428,2054.81267 L1428,2046.18733 Z M1436,2046.18733 L1436,2046 L1437,2046 L1437,2046.18733 L1437,2054.81267 L1437,2055 L1436,2055 L1436,2054.81267 L1436,2046.18733 Z M1444,2046.18733 L1444,2046 L1445,2046 L1445,2046.18733 L1445,2054.81267 L1445,2055 L1444,2055 L1444,2054.81267 L1444,2046.18733 Z M1452,2046.18733 L1452,2046 L1453,2046 L1453,2046.18733 L1453,2054.81267 L1453,2055 L1452,2055 L1452,2054.81267 L1452,2046.18733 Z M1460,2046.18733 L1460,2046 L1461,2046 L1461,2046.18733 L1461,2054.81267 L1461,2055 L1460,2055 L1460,2054.81267 L1460,2046.18733 Z M1468,2046.18733 L1468,2046 L1469,2046 L1469,2046.18733 L1469,2054.81267 L1469,2055 L1468,2055 L1468,2054.81267 L1468,2046.18733 Z M1476,2046.18733 L1476,2046 L1477,2046 L1477,2046.18733 L1477,2054.81267 L1477,2055 L1476,2055 L1476,2054.81267 L1476,2046.18733 Z M1484,2046.18733 L1484,2046 L1485,2046 L1485,2046.18733 L1485,2054.81267 L1485,2055 L1484,2055 L1484,2054.81267 L1484,2046.18733 Z M1492,2046.18733 L1492,2046 L1493,2046 L1493,2046.18733 L1493,2054.81267 L1493,2055 L1492,2055 L1492,2054.81267 L1492,2046.18733 Z M1500,2046.18733 L1500,2046 L1501,2046 L1501,2046.18733 L1501,2054.81267 L1501,2055 L1500,2055 L1500,2054.81267 L1500,2046.18733 Z M1508,2046.18733 L1508,2046 L1509,2046 L1509,2046.18733 L1509,2054.81267 L1509,2055 L1508,2055 L1508,2054.81267 L1508,2046.18733 Z M1516,2046.18733 L1516,2046 L1517,2046 L1517,2046.18733 L1517,2054.81267 L1517,2055 L1516,2055 L1516,2054.81267 L1516,2046.18733 Z M1524,2046.18733 L1524,2046 L1525,2046 L1525,2046.18733 L1525,2054.81267 L1525,2055 L1524,2055 L1524,2054.81267 L1524,2046.18733 Z M1532,2046.18733 L1532,2046 L1533,2046 L1533,2046.18733 L1533,2054.81267 L1533,2055 L1532,2055 L1532,2054.81267 L1532,2046.18733 Z M1540,2046.18733 L1540,2046 L1541,2046 L1541,2046.18733 L1541,2054.81267 L1541,2055 L1540,2055 L1540,2054.81267 L1540,2046.18733 Z M1548,2046.18733 L1548,2046 L1549,2046 L1549,2046.18733 L1549,2054.81267 L1549,2055 L1548,2055 L1548,2054.81267 L1548,2046.18733 Z M1556,2046.18733 L1556,2046 L1557,2046 L1557,2046.18733 L1557,2054.81267 L1557,2055 L1556,2055 L1556,2054.81267 L1556,2046.18733 Z M1564,2046.18733 L1564,2046 L1565,2046 L1565,2046.18733 L1565,2054.81267 L1565,2055 L1564,2055 L1564,2054.81267 L1564,2046.18733 Z M1572,2046.18733 L1572,2046 L1573,2046 L1573,2046.18733 L1573,2054.81267 L1573,2055 L1572,2055 L1572,2054.81267 L1572,2046.18733 Z M1580,2046.18733 L1580,2046 L1581,2046 L1581,2046.18733 L1581,2054.81267 L1581,2055 L1580,2055 L1580,2054.81267 L1580,2046.18733 Z M1588,2046.18733 L1588,2046 L1589,2046 L1589,2046.18733 L1589,2054.81267 L1589,2055 L1588,2055 L1588,2054.81267 L1588,2046.18733 Z M1596,2046.18733 L1596,2046 L1597,2046 L1597,2046.18733 L1597,2054.81267 L1597,2055 L1596,2055 L1596,2054.81267 L1596,2046.18733 Z M1604,2046.18733 L1604,2046 L1605,2046 L1605,2046.18733 L1605,2054.81267 L1605,2055 L1604,2055 L1604,2054.81267 L1604,2046.18733 Z M1612,2046.18733 L1612,2046 L1613,2046 L1613,2046.18733 L1613,2054.81267 L1613,2055 L1612,2055 L1612,2054.81267 L1612,2046.18733 Z M1620,2046.18733 L1620,2046 L1621,2046 L1621,2046.18733 L1621,2054.81267 L1621,2055 L1620,2055 L1620,2054.81267 L1620,2046.18733 Z M1628,2046.18733 L1628,2046 L1629,2046 L1629,2046.18733 L1629,2054.81267 L1629,2055 L1628,2055 L1628,2054.81267 L1628,2046.18733 Z M1636,2046.18733 L1636,2046 L1637,2046 L1637,2046.18733 L1637,2054.81267 L1637,2055 L1636,2055 L1636,2054.81267 L1636,2046.18733 Z M1644,2046.18733 L1644,2046 L1645,2046 L1645,2046.18733 L1645,2054.81267 L1645,2055 L1644,2055 L1644,2054.81267 L1644,2046.18733 Z M1652,2046.18733 L1652,2046 L1653,2046 L1653,2046.18733 L1653,2054.81267 L1653,2055 L1652,2055 L1652,2054.81267 L1652,2046.18733 Z M1660,2046.18733 L1660,2046 L1661,2046 L1661,2046.18733 L1661,2054.81267 L1661,2055 L1660,2055 L1660,2054.81267 L1660,2046.18733 Z M1668,2046.18733 L1668,2046 L1669,2046 L1669,2046.18733 L1669,2054.81267 L1669,2055 L1668,2055 L1668,2054.81267 L1668,2046.18733 Z M1676,2046.18733 L1676,2046 L1677,2046 L1677,2046.18733 L1677,2054.81267 L1677,2055 L1676,2055 L1676,2054.81267 L1676,2046.18733 Z M1684,2046.18733 L1684,2046 L1685,2046 L1685,2046.18733 L1685,2054.81267 L1685,2055 L1684,2055 L1684,2054.81267 L1684,2046.18733 Z M1692,2046.18733 L1692,2046 L1693,2046 L1693,2046.18733 L1693,2054.81267 L1693,2055 L1692,2055 L1692,2054.81267 L1692,2046.18733 Z M1700,2046.18733 L1700,2046 L1701,2046 L1701,2046.18733 L1701,2054.81267 L1701,2055 L1700,2055 L1700,2054.81267 L1700,2046.18733 Z M1708,2046.18733 L1708,2046 L1709,2046 L1709,2046.18733 L1709,2054.81267 L1709,2055 L1708,2055 L1708,2054.81267 L1708,2046.18733 Z M1716,2046.18733 L1716,2046 L1717,2046 L1717,2046.18733 L1717,2054.81267 L1717,2055 L1716,2055 L1716,2054.81267 L1716,2046.18733 Z M1724,2046.18733 L1724,2046 L1725,2046 L1725,2046.18733 L1725,2054.81267 L1725,2055 L1724,2055 L1724,2054.81267 L1724,2046.18733 Z M1732,2046.18733 L1732,2046 L1733,2046 L1733,2046.18733 L1733,2054.81267 L1733,2055 L1732,2055 L1732,2054.81267 L1732,2046.18733 Z M1740,2046.18733 L1740,2046 L1741,2046 L1741,2046.18733 L1741,2054.81267 L1741,2055 L1740,2055 L1740,2054.81267 L1740,2046.18733 Z M1748,2046.18733 L1748,2046 L1749,2046 L1749,2046.18733 L1749,2054.81267 L1749,2055 L1748,2055 L1748,2054.81267 L1748,2046.18733 Z M1756,2046.18733 L1756,2046 L1757,2046 L1757,2046.18733 L1757,2054.81267 L1757,2055 L1756,2055 L1756,2054.81267 L1756,2046.18733 Z M1764,2046.18733 L1764,2046 L1765,2046 L1765,2046.18733 L1765,2054.81267 L1765,2055 L1764,2055 L1764,2054.81267 L1764,2046.18733 Z M1772,2046.18733 L1772,2046 L1773,2046 L1773,2046.18733 L1773,2054.81267 L1773,2055 L1772,2055 L1772,2054.81267 L1772,2046.18733 Z M1780,2046.18733 L1780,2046 L1781,2046 L1781,2046.18733 L1781,2054.81267 L1781,2055 L1780,2055 L1780,2054.81267 L1780,2046.18733 Z M1788,2046.18733 L1788,2046 L1789,2046 L1789,2046.18733 L1789,2054.81267 L1789,2055 L1788,2055 L1788,2054.81267 L1788,2046.18733 Z M1008,2046.18733 L1008,2046 L1009,2046 L1009,2046.18733 L1009,2054.81267 L1009,2055 L1008,2055 L1008,2054.81267 L1008,2046.18733 Z M1016,2046.18733 L1016,2046 L1017,2046 L1017,2046.18733 L1017,2054.81267 L1017,2055 L1016,2055 L1016,2054.81267 L1016,2046.18733 Z M1024,2046.18733 L1024,2046 L1025,2046 L1025,2046.18733 L1025,2054.81267 L1025,2055 L1024,2055 L1024,2054.81267 L1024,2046.18733 Z M1032,2046.18733 L1032,2046 L1033,2046 L1033,2046.18733 L1033,2054.81267 L1033,2055 L1032,2055 L1032,2054.81267 L1032,2046.18733 Z M1040,2046.18733 L1040,2046 L1041,2046 L1041,2046.18733 L1041,2054.81267 L1041,2055 L1040,2055 L1040,2054.81267 L1040,2046.18733 Z M1048,2046.18733 L1048,2046 L1049,2046 L1049,2046.18733 L1049,2054.81267 L1049,2055 L1048,2055 L1048,2054.81267 L1048,2046.18733 Z M1056,2046.18733 L1056,2046 L1057,2046 L1057,2046.18733 L1057,2054.81267 L1057,2055 L1056,2055 L1056,2054.81267 L1056,2046.18733 Z M1064,2046.18733 L1064,2046 L1065,2046 L1065,2046.18733 L1065,2054.81267 L1065,2055 L1064,2055 L1064,2054.81267 L1064,2046.18733 Z M1072,2046.18733 L1072,2046 L1073,2046 L1073,2046.18733 L1073,2054.81267 L1073,2055 L1072,2055 L1072,2054.81267 L1072,2046.18733 Z M1080,2046.18733 L1080,2046 L1081,2046 L1081,2046.18733 L1081,2054.81267 L1081,2055 L1080,2055 L1080,2054.81267 L1080,2046.18733 Z M1088,2046.18733 L1088,2046 L1089,2046 L1089,2046.18733 L1089,2054.81267 L1089,2055 L1088,2055 L1088,2054.81267 L1088,2046.18733 Z M1096,2046.18733 L1096,2046 L1097,2046 L1097,2046.18733 L1097,2054.81267 L1097,2055 L1096,2055 L1096,2054.81267 L1096,2046.18733 Z M1104,2046.18733 L1104,2046 L1105,2046 L1105,2046.18733 L1105,2054.81267 L1105,2055 L1104,2055 L1104,2054.81267 L1104,2046.18733 Z M1112,2046.18733 L1112,2046 L1113,2046 L1113,2046.18733 L1113,2054.81267 L1113,2055 L1112,2055 L1112,2054.81267 L1112,2046.18733 Z M1120,2046.18733 L1120,2046 L1121,2046 L1121,2046.18733 L1121,2054.81267 L1121,2055 L1120,2055 L1120,2054.81267 L1120,2046.18733 Z M1128,2046.18733 L1128,2046 L1129,2046 L1129,2046.18733 L1129,2054.81267 L1129,2055 L1128,2055 L1128,2054.81267 L1128,2046.18733 Z M1136,2046.18733 L1136,2046 L1137,2046 L1137,2046.18733 L1137,2054.81267 L1137,2055 L1136,2055 L1136,2054.81267 L1136,2046.18733 Z M1144,2046.18733 L1144,2046 L1145,2046 L1145,2046.18733 L1145,2054.81267 L1145,2055 L1144,2055 L1144,2054.81267 L1144,2046.18733 Z M1152,2046.18733 L1152,2046 L1153,2046 L1153,2046.18733 L1153,2054.81267 L1153,2055 L1152,2055 L1152,2054.81267 L1152,2046.18733 Z M1160,2046.18733 L1160,2046 L1161,2046 L1161,2046.18733 L1161,2054.81267 L1161,2055 L1160,2055 L1160,2054.81267 L1160,2046.18733 Z M1168,2046.18733 L1168,2046 L1169,2046 L1169,2046.18733 L1169,2054.81267 L1169,2055 L1168,2055 L1168,2054.81267 L1168,2046.18733 Z M1176,2046.18733 L1176,2046 L1177,2046 L1177,2046.18733 L1177,2054.81267 L1177,2055 L1176,2055 L1176,2054.81267 L1176,2046.18733 Z M1184,2046.18733 L1184,2046 L1185,2046 L1185,2046.18733 L1185,2054.81267 L1185,2055 L1184,2055 L1184,2054.81267 L1184,2046.18733 Z M1192,2046.18733 L1192,2046 L1193,2046 L1193,2046.18733 L1193,2054.81267 L1193,2055 L1192,2055 L1192,2054.81267 L1192,2046.18733 Z M1200,2046.18733 L1200,2046 L1201,2046 L1201,2046.18733 L1201,2054.81267 L1201,2055 L1200,2055 L1200,2054.81267 L1200,2046.18733 Z M1208,2046.18733 L1208,2046 L1209,2046 L1209,2046.18733 L1209,2054.81267 L1209,2055 L1208,2055 L1208,2054.81267 L1208,2046.18733 Z M1216,2046.18733 L1216,2046 L1217,2046 L1217,2046.18733 L1217,2054.81267 L1217,2055 L1216,2055 L1216,2054.81267 L1216,2046.18733 Z M1224,2046.18733 L1224,2046 L1225,2046 L1225,2046.18733 L1225,2054.81267 L1225,2055 L1224,2055 L1224,2054.81267 L1224,2046.18733 Z M1232,2046.18733 L1232,2046 L1233,2046 L1233,2046.18733 L1233,2054.81267 L1233,2055 L1232,2055 L1232,2054.81267 L1232,2046.18733 Z M1240,2046.18733 L1240,2046 L1241,2046 L1241,2046.18733 L1241,2054.81267 L1241,2055 L1240,2055 L1240,2054.81267 L1240,2046.18733 Z M1248,2046.18733 L1248,2046 L1249,2046 L1249,2046.18733 L1249,2054.81267 L1249,2055 L1248,2055 L1248,2054.81267 L1248,2046.18733 Z M1256,2046.18733 L1256,2046 L1257,2046 L1257,2046.18733 L1257,2054.81267 L1257,2055 L1256,2055 L1256,2054.81267 L1256,2046.18733 Z M1264,2046.18733 L1264,2046 L1265,2046 L1265,2046.18733 L1265,2054.81267 L1265,2055 L1264,2055 L1264,2054.81267 L1264,2046.18733 Z M1272,2046.18733 L1272,2046 L1273,2046 L1273,2046.18733 L1273,2054.81267 L1273,2055 L1272,2055 L1272,2054.81267 L1272,2046.18733 Z M1280,2046.18733 L1280,2046 L1281,2046 L1281,2046.18733 L1281,2054.81267 L1281,2055 L1280,2055 L1280,2054.81267 L1280,2046.18733 Z M1288,2046.18733 L1288,2046 L1289,2046 L1289,2046.18733 L1289,2054.81267 L1289,2055 L1288,2055 L1288,2054.81267 L1288,2046.18733 Z M1296,2046.18733 L1296,2046 L1297,2046 L1297,2046.18733 L1297,2054.81267 L1297,2055 L1296,2055 L1296,2054.81267 L1296,2046.18733 Z M1304,2046.18733 L1304,2046 L1305,2046 L1305,2046.18733 L1305,2054.81267 L1305,2055 L1304,2055 L1304,2054.81267 L1304,2046.18733 Z M1312,2046.18733 L1312,2046 L1313,2046 L1313,2046.18733 L1313,2054.81267 L1313,2055 L1312,2055 L1312,2054.81267 L1312,2046.18733 Z M1320,2046.18733 L1320,2046 L1321,2046 L1321,2046.18733 L1321,2054.81267 L1321,2055 L1320,2055 L1320,2054.81267 L1320,2046.18733 Z M1328,2046.18733 L1328,2046 L1329,2046 L1329,2046.18733 L1329,2054.81267 L1329,2055 L1328,2055 L1328,2054.81267 L1328,2046.18733 Z M1336,2046.18733 L1336,2046 L1337,2046 L1337,2046.18733 L1337,2054.81267 L1337,2055 L1336,2055 L1336,2054.81267 L1336,2046.18733 Z M1344,2046.18733 L1344,2046 L1345,2046 L1345,2046.18733 L1345,2054.81267 L1345,2055 L1344,2055 L1344,2054.81267 L1344,2046.18733 Z M1352,2046.18733 L1352,2046 L1353,2046 L1353,2046.18733 L1353,2054.81267 L1353,2055 L1352,2055 L1352,2054.81267 L1352,2046.18733 Z M1360,2046.18733 L1360,2046 L1361,2046 L1361,2046.18733 L1361,2054.81267 L1361,2055 L1360,2055 L1360,2054.81267 L1360,2046.18733 Z M1368,2046.18733 L1368,2046 L1369,2046 L1369,2046.18733 L1369,2054.81267 L1369,2055 L1368,2055 L1368,2054.81267 L1368,2046.18733 Z M1376,2046.18733 L1376,2046 L1377,2046 L1377,2046.18733 L1377,2054.81267 L1377,2055 L1376,2055 L1376,2054.81267 L1376,2046.18733 Z M1384,2046.18733 L1384,2046 L1385,2046 L1385,2046.18733 L1385,2054.81267 L1385,2055 L1384,2055 L1384,2054.81267 L1384,2046.18733 Z M1392,2046.18733 L1392,2046 L1393,2046 L1393,2046.18733 L1393,2054.81267 L1393,2055 L1392,2055 L1392,2054.81267 L1392,2046.18733 Z M1400,2046.18733 L1400,2046 L1401,2046 L1401,2046.18733 L1401,2054.81267 L1401,2055 L1400,2055 L1400,2054.81267 L1400,2046.18733 Z M1408,2046.18733 L1408,2046 L1409,2046 L1409,2046.18733 L1409,2054.81267 L1409,2055 L1408,2055 L1408,2054.81267 L1408,2046.18733 Z M1416,2046.18733 L1416,2046 L1417,2046 L1417,2046.18733 L1417,2054.81267 L1417,2055 L1416,2055 L1416,2054.81267 L1416,2046.18733 Z M1424,2046.18733 L1424,2046 L1425,2046 L1425,2046.18733 L1425,2054.81267 L1425,2055 L1424,2055 L1424,2054.81267 L1424,2046.18733 Z M1432,2046.18733 L1432,2046 L1433,2046 L1433,2046.18733 L1433,2054.81267 L1433,2055 L1432,2055 L1432,2054.81267 L1432,2046.18733 Z M1440,2046.18733 L1440,2046 L1441,2046 L1441,2046.18733 L1441,2054.81267 L1441,2055 L1440,2055 L1440,2054.81267 L1440,2046.18733 Z M1448,2046.18733 L1448,2046 L1449,2046 L1449,2046.18733 L1449,2054.81267 L1449,2055 L1448,2055 L1448,2054.81267 L1448,2046.18733 Z M1456,2046.18733 L1456,2046 L1457,2046 L1457,2046.18733 L1457,2054.81267 L1457,2055 L1456,2055 L1456,2054.81267 L1456,2046.18733 Z M1464,2046.18733 L1464,2046 L1465,2046 L1465,2046.18733 L1465,2054.81267 L1465,2055 L1464,2055 L1464,2054.81267 L1464,2046.18733 Z M1472,2046.18733 L1472,2046 L1473,2046 L1473,2046.18733 L1473,2054.81267 L1473,2055 L1472,2055 L1472,2054.81267 L1472,2046.18733 Z M1480,2046.18733 L1480,2046 L1481,2046 L1481,2046.18733 L1481,2054.81267 L1481,2055 L1480,2055 L1480,2054.81267 L1480,2046.18733 Z M1488,2046.18733 L1488,2046 L1489,2046 L1489,2046.18733 L1489,2054.81267 L1489,2055 L1488,2055 L1488,2054.81267 L1488,2046.18733 Z M1496,2046.18733 L1496,2046 L1497,2046 L1497,2046.18733 L1497,2054.81267 L1497,2055 L1496,2055 L1496,2054.81267 L1496,2046.18733 Z M1504,2046.18733 L1504,2046 L1505,2046 L1505,2046.18733 L1505,2054.81267 L1505,2055 L1504,2055 L1504,2054.81267 L1504,2046.18733 Z M1512,2046.18733 L1512,2046 L1513,2046 L1513,2046.18733 L1513,2054.81267 L1513,2055 L1512,2055 L1512,2054.81267 L1512,2046.18733 Z M1520,2046.18733 L1520,2046 L1521,2046 L1521,2046.18733 L1521,2054.81267 L1521,2055 L1520,2055 L1520,2054.81267 L1520,2046.18733 Z M1528,2046.18733 L1528,2046 L1529,2046 L1529,2046.18733 L1529,2054.81267 L1529,2055 L1528,2055 L1528,2054.81267 L1528,2046.18733 Z M1536,2046.18733 L1536,2046 L1537,2046 L1537,2046.18733 L1537,2054.81267 L1537,2055 L1536,2055 L1536,2054.81267 L1536,2046.18733 Z M1544,2046.18733 L1544,2046 L1545,2046 L1545,2046.18733 L1545,2054.81267 L1545,2055 L1544,2055 L1544,2054.81267 L1544,2046.18733 Z M1552,2046.18733 L1552,2046 L1553,2046 L1553,2046.18733 L1553,2054.81267 L1553,2055 L1552,2055 L1552,2054.81267 L1552,2046.18733 Z M1560,2046.18733 L1560,2046 L1561,2046 L1561,2046.18733 L1561,2054.81267 L1561,2055 L1560,2055 L1560,2054.81267 L1560,2046.18733 Z M1568,2046.18733 L1568,2046 L1569,2046 L1569,2046.18733 L1569,2054.81267 L1569,2055 L1568,2055 L1568,2054.81267 L1568,2046.18733 Z M1576,2046.18733 L1576,2046 L1577,2046 L1577,2046.18733 L1577,2054.81267 L1577,2055 L1576,2055 L1576,2054.81267 L1576,2046.18733 Z M1584,2046.18733 L1584,2046 L1585,2046 L1585,2046.18733 L1585,2054.81267 L1585,2055 L1584,2055 L1584,2054.81267 L1584,2046.18733 Z M1592,2046.18733 L1592,2046 L1593,2046 L1593,2046.18733 L1593,2054.81267 L1593,2055 L1592,2055 L1592,2054.81267 L1592,2046.18733 Z M1600,2046.18733 L1600,2046 L1601,2046 L1601,2046.18733 L1601,2054.81267 L1601,2055 L1600,2055 L1600,2054.81267 L1600,2046.18733 Z M1608,2046.18733 L1608,2046 L1609,2046 L1609,2046.18733 L1609,2054.81267 L1609,2055 L1608,2055 L1608,2054.81267 L1608,2046.18733 Z M1616,2046.18733 L1616,2046 L1617,2046 L1617,2046.18733 L1617,2054.81267 L1617,2055 L1616,2055 L1616,2054.81267 L1616,2046.18733 Z M1624,2046.18733 L1624,2046 L1625,2046 L1625,2046.18733 L1625,2054.81267 L1625,2055 L1624,2055 L1624,2054.81267 L1624,2046.18733 Z M1632,2046.18733 L1632,2046 L1633,2046 L1633,2046.18733 L1633,2054.81267 L1633,2055 L1632,2055 L1632,2054.81267 L1632,2046.18733 Z M1640,2046.18733 L1640,2046 L1641,2046 L1641,2046.18733 L1641,2054.81267 L1641,2055 L1640,2055 L1640,2054.81267 L1640,2046.18733 Z M1648,2046.18733 L1648,2046 L1649,2046 L1649,2046.18733 L1649,2054.81267 L1649,2055 L1648,2055 L1648,2054.81267 L1648,2046.18733 Z M1656,2046.18733 L1656,2046 L1657,2046 L1657,2046.18733 L1657,2054.81267 L1657,2055 L1656,2055 L1656,2054.81267 L1656,2046.18733 Z M1664,2046.18733 L1664,2046 L1665,2046 L1665,2046.18733 L1665,2054.81267 L1665,2055 L1664,2055 L1664,2054.81267 L1664,2046.18733 Z M1672,2046.18733 L1672,2046 L1673,2046 L1673,2046.18733 L1673,2054.81267 L1673,2055 L1672,2055 L1672,2054.81267 L1672,2046.18733 Z M1680,2046.18733 L1680,2046 L1681,2046 L1681,2046.18733 L1681,2054.81267 L1681,2055 L1680,2055 L1680,2054.81267 L1680,2046.18733 Z M1688,2046.18733 L1688,2046 L1689,2046 L1689,2046.18733 L1689,2054.81267 L1689,2055 L1688,2055 L1688,2054.81267 L1688,2046.18733 Z M1696,2046.18733 L1696,2046 L1697,2046 L1697,2046.18733 L1697,2054.81267 L1697,2055 L1696,2055 L1696,2054.81267 L1696,2046.18733 Z M1704,2046.18733 L1704,2046 L1705,2046 L1705,2046.18733 L1705,2054.81267 L1705,2055 L1704,2055 L1704,2054.81267 L1704,2046.18733 Z M1712,2046.18733 L1712,2046 L1713,2046 L1713,2046.18733 L1713,2054.81267 L1713,2055 L1712,2055 L1712,2054.81267 L1712,2046.18733 Z M1720,2046.18733 L1720,2046 L1721,2046 L1721,2046.18733 L1721,2054.81267 L1721,2055 L1720,2055 L1720,2054.81267 L1720,2046.18733 Z M1728,2046.18733 L1728,2046 L1729,2046 L1729,2046.18733 L1729,2054.81267 L1729,2055 L1728,2055 L1728,2054.81267 L1728,2046.18733 Z M1736,2046.18733 L1736,2046 L1737,2046 L1737,2046.18733 L1737,2054.81267 L1737,2055 L1736,2055 L1736,2054.81267 L1736,2046.18733 Z M1744,2046.18733 L1744,2046 L1745,2046 L1745,2046.18733 L1745,2054.81267 L1745,2055 L1744,2055 L1744,2054.81267 L1744,2046.18733 Z M1752,2046.18733 L1752,2046 L1753,2046 L1753,2046.18733 L1753,2054.81267 L1753,2055 L1752,2055 L1752,2054.81267 L1752,2046.18733 Z M1760,2046.18733 L1760,2046 L1761,2046 L1761,2046.18733 L1761,2054.81267 L1761,2055 L1760,2055 L1760,2054.81267 L1760,2046.18733 Z M1768,2046.18733 L1768,2046 L1769,2046 L1769,2046.18733 L1769,2054.81267 L1769,2055 L1768,2055 L1768,2054.81267 L1768,2046.18733 Z M1776,2046.18733 L1776,2046 L1777,2046 L1777,2046.18733 L1777,2054.81267 L1777,2055 L1776,2055 L1776,2054.81267 L1776,2046.18733 Z M1784,2046.18733 L1784,2046 L1785,2046 L1785,2046.18733 L1785,2054.81267 L1785,2055 L1784,2055 L1784,2054.81267 L1784,2046.18733 Z M72,2046.18733 L72,2046 L73,2046 L73,2046.18733 L73,2054.81267 L73,2055 L72,2055 L72,2054.81267 L72,2046.18733 Z M80,2046.18733 L80,2046 L81,2046 L81,2046.18733 L81,2054.81267 L81,2055 L80,2055 L80,2054.81267 L80,2046.18733 Z M88,2046.18733 L88,2046 L89,2046 L89,2046.18733 L89,2054.81267 L89,2055 L88,2055 L88,2054.81267 L88,2046.18733 Z M96,2046.18733 L96,2046 L97,2046 L97,2046.18733 L97,2054.81267 L97,2055 L96,2055 L96,2054.81267 L96,2046.18733 Z M104,2046.18733 L104,2046 L105,2046 L105,2046.18733 L105,2054.81267 L105,2055 L104,2055 L104,2054.81267 L104,2046.18733 Z M112,2046.18733 L112,2046 L113,2046 L113,2046.18733 L113,2054.81267 L113,2055 L112,2055 L112,2054.81267 L112,2046.18733 Z M120,2046.18733 L120,2046 L121,2046 L121,2046.18733 L121,2054.81267 L121,2055 L120,2055 L120,2054.81267 L120,2046.18733 Z M128,2046.18733 L128,2046 L129,2046 L129,2046.18733 L129,2054.81267 L129,2055 L128,2055 L128,2054.81267 L128,2046.18733 Z M136,2046.18733 L136,2046 L137,2046 L137,2046.18733 L137,2054.81267 L137,2055 L136,2055 L136,2054.81267 L136,2046.18733 Z M144,2046.18733 L144,2046 L145,2046 L145,2046.18733 L145,2054.81267 L145,2055 L144,2055 L144,2054.81267 L144,2046.18733 Z M152,2046.18733 L152,2046 L153,2046 L153,2046.18733 L153,2054.81267 L153,2055 L152,2055 L152,2054.81267 L152,2046.18733 Z M160,2046.18733 L160,2046 L161,2046 L161,2046.18733 L161,2054.81267 L161,2055 L160,2055 L160,2054.81267 L160,2046.18733 Z M168,2046.18733 L168,2046 L169,2046 L169,2046.18733 L169,2054.81267 L169,2055 L168,2055 L168,2054.81267 L168,2046.18733 Z M176,2046.18733 L176,2046 L177,2046 L177,2046.18733 L177,2054.81267 L177,2055 L176,2055 L176,2054.81267 L176,2046.18733 Z M184,2046.18733 L184,2046 L185,2046 L185,2046.18733 L185,2054.81267 L185,2055 L184,2055 L184,2054.81267 L184,2046.18733 Z M192,2046.18733 L192,2046 L193,2046 L193,2046.18733 L193,2054.81267 L193,2055 L192,2055 L192,2054.81267 L192,2046.18733 Z M200,2046.18733 L200,2046 L201,2046 L201,2046.18733 L201,2054.81267 L201,2055 L200,2055 L200,2054.81267 L200,2046.18733 Z M208,2046.18733 L208,2046 L209,2046 L209,2046.18733 L209,2054.81267 L209,2055 L208,2055 L208,2054.81267 L208,2046.18733 Z M216,2046.18733 L216,2046 L217,2046 L217,2046.18733 L217,2054.81267 L217,2055 L216,2055 L216,2054.81267 L216,2046.18733 Z M224,2046.18733 L224,2046 L225,2046 L225,2046.18733 L225,2054.81267 L225,2055 L224,2055 L224,2054.81267 L224,2046.18733 Z M232,2046.18733 L232,2046 L233,2046 L233,2046.18733 L233,2054.81267 L233,2055 L232,2055 L232,2054.81267 L232,2046.18733 Z M240,2046.18733 L240,2046 L241,2046 L241,2046.18733 L241,2054.81267 L241,2055 L240,2055 L240,2054.81267 L240,2046.18733 Z M248,2046.18733 L248,2046 L249,2046 L249,2046.18733 L249,2054.81267 L249,2055 L248,2055 L248,2054.81267 L248,2046.18733 Z M256,2046.18733 L256,2046 L257,2046 L257,2046.18733 L257,2054.81267 L257,2055 L256,2055 L256,2054.81267 L256,2046.18733 Z M264,2046.18733 L264,2046 L265,2046 L265,2046.18733 L265,2054.81267 L265,2055 L264,2055 L264,2054.81267 L264,2046.18733 Z M272,2046.18733 L272,2046 L273,2046 L273,2046.18733 L273,2054.81267 L273,2055 L272,2055 L272,2054.81267 L272,2046.18733 Z M280,2046.18733 L280,2046 L281,2046 L281,2046.18733 L281,2054.81267 L281,2055 L280,2055 L280,2054.81267 L280,2046.18733 Z M288,2046.18733 L288,2046 L289,2046 L289,2046.18733 L289,2054.81267 L289,2055 L288,2055 L288,2054.81267 L288,2046.18733 Z M296,2046.18733 L296,2046 L297,2046 L297,2046.18733 L297,2054.81267 L297,2055 L296,2055 L296,2054.81267 L296,2046.18733 Z M304,2046.18733 L304,2046 L305,2046 L305,2046.18733 L305,2054.81267 L305,2055 L304,2055 L304,2054.81267 L304,2046.18733 Z M312,2046.18733 L312,2046 L313,2046 L313,2046.18733 L313,2054.81267 L313,2055 L312,2055 L312,2054.81267 L312,2046.18733 Z M320,2046.18733 L320,2046 L321,2046 L321,2046.18733 L321,2054.81267 L321,2055 L320,2055 L320,2054.81267 L320,2046.18733 Z M328,2046.18733 L328,2046 L329,2046 L329,2046.18733 L329,2054.81267 L329,2055 L328,2055 L328,2054.81267 L328,2046.18733 Z M336,2046.18733 L336,2046 L337,2046 L337,2046.18733 L337,2054.81267 L337,2055 L336,2055 L336,2054.81267 L336,2046.18733 Z M344,2046.18733 L344,2046 L345,2046 L345,2046.18733 L345,2054.81267 L345,2055 L344,2055 L344,2054.81267 L344,2046.18733 Z M352,2046.18733 L352,2046 L353,2046 L353,2046.18733 L353,2054.81267 L353,2055 L352,2055 L352,2054.81267 L352,2046.18733 Z M360,2046.18733 L360,2046 L361,2046 L361,2046.18733 L361,2054.81267 L361,2055 L360,2055 L360,2054.81267 L360,2046.18733 Z M368,2046.18733 L368,2046 L369,2046 L369,2046.18733 L369,2054.81267 L369,2055 L368,2055 L368,2054.81267 L368,2046.18733 Z M376,2046.18733 L376,2046 L377,2046 L377,2046.18733 L377,2054.81267 L377,2055 L376,2055 L376,2054.81267 L376,2046.18733 Z M384,2046.18733 L384,2046 L385,2046 L385,2046.18733 L385,2054.81267 L385,2055 L384,2055 L384,2054.81267 L384,2046.18733 Z M392,2046.18733 L392,2046 L393,2046 L393,2046.18733 L393,2054.81267 L393,2055 L392,2055 L392,2054.81267 L392,2046.18733 Z M400,2046.18733 L400,2046 L401,2046 L401,2046.18733 L401,2054.81267 L401,2055 L400,2055 L400,2054.81267 L400,2046.18733 Z M408,2046.18733 L408,2046 L409,2046 L409,2046.18733 L409,2054.81267 L409,2055 L408,2055 L408,2054.81267 L408,2046.18733 Z M416,2046.18733 L416,2046 L417,2046 L417,2046.18733 L417,2054.81267 L417,2055 L416,2055 L416,2054.81267 L416,2046.18733 Z M424,2046.18733 L424,2046 L425,2046 L425,2046.18733 L425,2054.81267 L425,2055 L424,2055 L424,2054.81267 L424,2046.18733 Z M432,2046.18733 L432,2046 L433,2046 L433,2046.18733 L433,2054.81267 L433,2055 L432,2055 L432,2054.81267 L432,2046.18733 Z M440,2046.18733 L440,2046 L441,2046 L441,2046.18733 L441,2054.81267 L441,2055 L440,2055 L440,2054.81267 L440,2046.18733 Z M448,2046.18733 L448,2046 L449,2046 L449,2046.18733 L449,2054.81267 L449,2055 L448,2055 L448,2054.81267 L448,2046.18733 Z M456,2046.18733 L456,2046 L457,2046 L457,2046.18733 L457,2054.81267 L457,2055 L456,2055 L456,2054.81267 L456,2046.18733 Z M464,2046.18733 L464,2046 L465,2046 L465,2046.18733 L465,2054.81267 L465,2055 L464,2055 L464,2054.81267 L464,2046.18733 Z M472,2046.18733 L472,2046 L473,2046 L473,2046.18733 L473,2054.81267 L473,2055 L472,2055 L472,2054.81267 L472,2046.18733 Z M480,2046.18733 L480,2046 L481,2046 L481,2046.18733 L481,2054.81267 L481,2055 L480,2055 L480,2054.81267 L480,2046.18733 Z M488,2046.18733 L488,2046 L489,2046 L489,2046.18733 L489,2054.81267 L489,2055 L488,2055 L488,2054.81267 L488,2046.18733 Z M496,2046.18733 L496,2046 L497,2046 L497,2046.18733 L497,2054.81267 L497,2055 L496,2055 L496,2054.81267 L496,2046.18733 Z M504,2046.18733 L504,2046 L505,2046 L505,2046.18733 L505,2054.81267 L505,2055 L504,2055 L504,2054.81267 L504,2046.18733 Z M512,2046.18733 L512,2046 L513,2046 L513,2046.18733 L513,2054.81267 L513,2055 L512,2055 L512,2054.81267 L512,2046.18733 Z M520,2046.18733 L520,2046 L521,2046 L521,2046.18733 L521,2054.81267 L521,2055 L520,2055 L520,2054.81267 L520,2046.18733 Z M528,2046.18733 L528,2046 L529,2046 L529,2046.18733 L529,2054.81267 L529,2055 L528,2055 L528,2054.81267 L528,2046.18733 Z M536,2046.18733 L536,2046 L537,2046 L537,2046.18733 L537,2054.81267 L537,2055 L536,2055 L536,2054.81267 L536,2046.18733 Z M544,2046.18733 L544,2046 L545,2046 L545,2046.18733 L545,2054.81267 L545,2055 L544,2055 L544,2054.81267 L544,2046.18733 Z M552,2046.18733 L552,2046 L553,2046 L553,2046.18733 L553,2054.81267 L553,2055 L552,2055 L552,2054.81267 L552,2046.18733 Z M560,2046.18733 L560,2046 L561,2046 L561,2046.18733 L561,2054.81267 L561,2055 L560,2055 L560,2054.81267 L560,2046.18733 Z M568,2046.18733 L568,2046 L569,2046 L569,2046.18733 L569,2054.81267 L569,2055 L568,2055 L568,2054.81267 L568,2046.18733 Z M576,2046.18733 L576,2046 L577,2046 L577,2046.18733 L577,2054.81267 L577,2055 L576,2055 L576,2054.81267 L576,2046.18733 Z M584,2046.18733 L584,2046 L585,2046 L585,2046.18733 L585,2054.81267 L585,2055 L584,2055 L584,2054.81267 L584,2046.18733 Z M592,2046.18733 L592,2046 L593,2046 L593,2046.18733 L593,2054.81267 L593,2055 L592,2055 L592,2054.81267 L592,2046.18733 Z M600,2046.18733 L600,2046 L601,2046 L601,2046.18733 L601,2054.81267 L601,2055 L600,2055 L600,2054.81267 L600,2046.18733 Z M608,2046.18733 L608,2046 L609,2046 L609,2046.18733 L609,2054.81267 L609,2055 L608,2055 L608,2054.81267 L608,2046.18733 Z M616,2046.18733 L616,2046 L617,2046 L617,2046.18733 L617,2054.81267 L617,2055 L616,2055 L616,2054.81267 L616,2046.18733 Z M624,2046.18733 L624,2046 L625,2046 L625,2046.18733 L625,2054.81267 L625,2055 L624,2055 L624,2054.81267 L624,2046.18733 Z M632,2046.18733 L632,2046 L633,2046 L633,2046.18733 L633,2054.81267 L633,2055 L632,2055 L632,2054.81267 L632,2046.18733 Z M640,2046.18733 L640,2046 L641,2046 L641,2046.18733 L641,2054.81267 L641,2055 L640,2055 L640,2054.81267 L640,2046.18733 Z M648,2046.18733 L648,2046 L649,2046 L649,2046.18733 L649,2054.81267 L649,2055 L648,2055 L648,2054.81267 L648,2046.18733 Z M656,2046.18733 L656,2046 L657,2046 L657,2046.18733 L657,2054.81267 L657,2055 L656,2055 L656,2054.81267 L656,2046.18733 Z M664,2046.18733 L664,2046 L665,2046 L665,2046.18733 L665,2054.81267 L665,2055 L664,2055 L664,2054.81267 L664,2046.18733 Z M672,2046.18733 L672,2046 L673,2046 L673,2046.18733 L673,2054.81267 L673,2055 L672,2055 L672,2054.81267 L672,2046.18733 Z M680,2046.18733 L680,2046 L681,2046 L681,2046.18733 L681,2054.81267 L681,2055 L680,2055 L680,2054.81267 L680,2046.18733 Z M688,2046.18733 L688,2046 L689,2046 L689,2046.18733 L689,2054.81267 L689,2055 L688,2055 L688,2054.81267 L688,2046.18733 Z M696,2046.18733 L696,2046 L697,2046 L697,2046.18733 L697,2054.81267 L697,2055 L696,2055 L696,2054.81267 L696,2046.18733 Z M704,2046.18733 L704,2046 L705,2046 L705,2046.18733 L705,2054.81267 L705,2055 L704,2055 L704,2054.81267 L704,2046.18733 Z M712,2046.18733 L712,2046 L713,2046 L713,2046.18733 L713,2054.81267 L713,2055 L712,2055 L712,2054.81267 L712,2046.18733 Z M720,2046.18733 L720,2046 L721,2046 L721,2046.18733 L721,2054.81267 L721,2055 L720,2055 L720,2054.81267 L720,2046.18733 Z M728,2046.18733 L728,2046 L729,2046 L729,2046.18733 L729,2054.81267 L729,2055 L728,2055 L728,2054.81267 L728,2046.18733 Z M736,2046.18733 L736,2046 L737,2046 L737,2046.18733 L737,2054.81267 L737,2055 L736,2055 L736,2054.81267 L736,2046.18733 Z M744,2046.18733 L744,2046 L745,2046 L745,2046.18733 L745,2054.81267 L745,2055 L744,2055 L744,2054.81267 L744,2046.18733 Z M752,2046.18733 L752,2046 L753,2046 L753,2046.18733 L753,2054.81267 L753,2055 L752,2055 L752,2054.81267 L752,2046.18733 Z M760,2046.18733 L760,2046 L761,2046 L761,2046.18733 L761,2054.81267 L761,2055 L760,2055 L760,2054.81267 L760,2046.18733 Z M768,2046.18733 L768,2046 L769,2046 L769,2046.18733 L769,2054.81267 L769,2055 L768,2055 L768,2054.81267 L768,2046.18733 Z M776,2046.18733 L776,2046 L777,2046 L777,2046.18733 L777,2054.81267 L777,2055 L776,2055 L776,2054.81267 L776,2046.18733 Z M784,2046.18733 L784,2046 L785,2046 L785,2046.18733 L785,2054.81267 L785,2055 L784,2055 L784,2054.81267 L784,2046.18733 Z M792,2046.18733 L792,2046 L793,2046 L793,2046.18733 L793,2054.81267 L793,2055 L792,2055 L792,2054.81267 L792,2046.18733 Z M800,2046.18733 L800,2046 L801,2046 L801,2046.18733 L801,2054.81267 L801,2055 L800,2055 L800,2054.81267 L800,2046.18733 Z M808,2046.18733 L808,2046 L809,2046 L809,2046.18733 L809,2054.81267 L809,2055 L808,2055 L808,2054.81267 L808,2046.18733 Z M816,2046.18733 L816,2046 L817,2046 L817,2046.18733 L817,2054.81267 L817,2055 L816,2055 L816,2054.81267 L816,2046.18733 Z M824,2046.18733 L824,2046 L825,2046 L825,2046.18733 L825,2054.81267 L825,2055 L824,2055 L824,2054.81267 L824,2046.18733 Z M832,2046.18733 L832,2046 L833,2046 L833,2046.18733 L833,2054.81267 L833,2055 L832,2055 L832,2054.81267 L832,2046.18733 Z M840,2046.18733 L840,2046 L841,2046 L841,2046.18733 L841,2054.81267 L841,2055 L840,2055 L840,2054.81267 L840,2046.18733 Z M848,2046.18733 L848,2046 L849,2046 L849,2046.18733 L849,2054.81267 L849,2055 L848,2055 L848,2054.81267 L848,2046.18733 Z M856,2046.18733 L856,2046 L857,2046 L857,2046.18733 L857,2054.81267 L857,2055 L856,2055 L856,2054.81267 L856,2046.18733 Z M864,2046.18733 L864,2046 L865,2046 L865,2046.18733 L865,2054.81267 L865,2055 L864,2055 L864,2054.81267 L864,2046.18733 Z M872,2046.18733 L872,2046 L873,2046 L873,2046.18733 L873,2054.81267 L873,2055 L872,2055 L872,2054.81267 L872,2046.18733 Z M880,2046.18733 L880,2046 L881,2046 L881,2046.18733 L881,2054.81267 L881,2055 L880,2055 L880,2054.81267 L880,2046.18733 Z M888,2046.18733 L888,2046 L889,2046 L889,2046.18733 L889,2054.81267 L889,2055 L888,2055 L888,2054.81267 L888,2046.18733 Z M896,2046.18733 L896,2046 L897,2046 L897,2046.18733 L897,2054.81267 L897,2055 L896,2055 L896,2054.81267 L896,2046.18733 Z M904,2046.18733 L904,2046 L905,2046 L905,2046.18733 L905,2054.81267 L905,2055 L904,2055 L904,2054.81267 L904,2046.18733 Z M912,2046.18733 L912,2046 L913,2046 L913,2046.18733 L913,2054.81267 L913,2055 L912,2055 L912,2054.81267 L912,2046.18733 Z M920,2046.18733 L920,2046 L921,2046 L921,2046.18733 L921,2054.81267 L921,2055 L920,2055 L920,2054.81267 L920,2046.18733 Z M928,2046.18733 L928,2046 L929,2046 L929,2046.18733 L929,2054.81267 L929,2055 L928,2055 L928,2054.81267 L928,2046.18733 Z M936,2046.18733 L936,2046 L937,2046 L937,2046.18733 L937,2054.81267 L937,2055 L936,2055 L936,2054.81267 L936,2046.18733 Z M944,2046.18733 L944,2046 L945,2046 L945,2046.18733 L945,2054.81267 L945,2055 L944,2055 L944,2054.81267 L944,2046.18733 Z M952,2046.18733 L952,2046 L953,2046 L953,2046.18733 L953,2054.81267 L953,2055 L952,2055 L952,2054.81267 L952,2046.18733 Z M960,2046.18733 L960,2046 L961,2046 L961,2046.18733 L961,2054.81267 L961,2055 L960,2055 L960,2054.81267 L960,2046.18733 Z M968,2046.18733 L968,2046 L969,2046 L969,2046.18733 L969,2054.81267 L969,2055 L968,2055 L968,2054.81267 L968,2046.18733 Z M976,2046.18733 L976,2046 L977,2046 L977,2046.18733 L977,2054.81267 L977,2055 L976,2055 L976,2054.81267 L976,2046.18733 Z M984,2046.18733 L984,2046 L985,2046 L985,2046.18733 L985,2054.81267 L985,2055 L984,2055 L984,2054.81267 L984,2046.18733 Z M992,2046.18733 L992,2046 L993,2046 L993,2046.18733 L993,2054.81267 L993,2055 L992,2055 L992,2054.81267 L992,2046.18733 Z M1000,2046.18733 L1000,2046 L1001,2046 L1001,2046.18733 L1001,2054.81267 L1001,2055 L1000,2055 L1000,2054.81267 L1000,2046.18733 Z M68,2046.18733 L68,2046 L69,2046 L69,2046.18733 L69,2054.81267 L69,2055 L68,2055 L68,2054.81267 L68,2046.18733 Z M76,2046.18733 L76,2046 L77,2046 L77,2046.18733 L77,2054.81267 L77,2055 L76,2055 L76,2054.81267 L76,2046.18733 Z M84,2046.18733 L84,2046 L85,2046 L85,2046.18733 L85,2054.81267 L85,2055 L84,2055 L84,2054.81267 L84,2046.18733 Z M92,2046.18733 L92,2046 L93,2046 L93,2046.18733 L93,2054.81267 L93,2055 L92,2055 L92,2054.81267 L92,2046.18733 Z M100,2046.18733 L100,2046 L101,2046 L101,2046.18733 L101,2054.81267 L101,2055 L100,2055 L100,2054.81267 L100,2046.18733 Z M108,2046.18733 L108,2046 L109,2046 L109,2046.18733 L109,2054.81267 L109,2055 L108,2055 L108,2054.81267 L108,2046.18733 Z M116,2046.18733 L116,2046 L117,2046 L117,2046.18733 L117,2054.81267 L117,2055 L116,2055 L116,2054.81267 L116,2046.18733 Z M124,2046.18733 L124,2046 L125,2046 L125,2046.18733 L125,2054.81267 L125,2055 L124,2055 L124,2054.81267 L124,2046.18733 Z M132,2046.18733 L132,2046 L133,2046 L133,2046.18733 L133,2054.81267 L133,2055 L132,2055 L132,2054.81267 L132,2046.18733 Z M140,2046.18733 L140,2046 L141,2046 L141,2046.18733 L141,2054.81267 L141,2055 L140,2055 L140,2054.81267 L140,2046.18733 Z M148,2046.18733 L148,2046 L149,2046 L149,2046.18733 L149,2054.81267 L149,2055 L148,2055 L148,2054.81267 L148,2046.18733 Z M156,2046.18733 L156,2046 L157,2046 L157,2046.18733 L157,2054.81267 L157,2055 L156,2055 L156,2054.81267 L156,2046.18733 Z M164,2046.18733 L164,2046 L165,2046 L165,2046.18733 L165,2054.81267 L165,2055 L164,2055 L164,2054.81267 L164,2046.18733 Z M172,2046.18733 L172,2046 L173,2046 L173,2046.18733 L173,2054.81267 L173,2055 L172,2055 L172,2054.81267 L172,2046.18733 Z M180,2046.18733 L180,2046 L181,2046 L181,2046.18733 L181,2054.81267 L181,2055 L180,2055 L180,2054.81267 L180,2046.18733 Z M188,2046.18733 L188,2046 L189,2046 L189,2046.18733 L189,2054.81267 L189,2055 L188,2055 L188,2054.81267 L188,2046.18733 Z M196,2046.18733 L196,2046 L197,2046 L197,2046.18733 L197,2054.81267 L197,2055 L196,2055 L196,2054.81267 L196,2046.18733 Z M204,2046.18733 L204,2046 L205,2046 L205,2046.18733 L205,2054.81267 L205,2055 L204,2055 L204,2054.81267 L204,2046.18733 Z M212,2046.18733 L212,2046 L213,2046 L213,2046.18733 L213,2054.81267 L213,2055 L212,2055 L212,2054.81267 L212,2046.18733 Z M220,2046.18733 L220,2046 L221,2046 L221,2046.18733 L221,2054.81267 L221,2055 L220,2055 L220,2054.81267 L220,2046.18733 Z M228,2046.18733 L228,2046 L229,2046 L229,2046.18733 L229,2054.81267 L229,2055 L228,2055 L228,2054.81267 L228,2046.18733 Z M236,2046.18733 L236,2046 L237,2046 L237,2046.18733 L237,2054.81267 L237,2055 L236,2055 L236,2054.81267 L236,2046.18733 Z M244,2046.18733 L244,2046 L245,2046 L245,2046.18733 L245,2054.81267 L245,2055 L244,2055 L244,2054.81267 L244,2046.18733 Z M252,2046.18733 L252,2046 L253,2046 L253,2046.18733 L253,2054.81267 L253,2055 L252,2055 L252,2054.81267 L252,2046.18733 Z M260,2046.18733 L260,2046 L261,2046 L261,2046.18733 L261,2054.81267 L261,2055 L260,2055 L260,2054.81267 L260,2046.18733 Z M268,2046.18733 L268,2046 L269,2046 L269,2046.18733 L269,2054.81267 L269,2055 L268,2055 L268,2054.81267 L268,2046.18733 Z M276,2046.18733 L276,2046 L277,2046 L277,2046.18733 L277,2054.81267 L277,2055 L276,2055 L276,2054.81267 L276,2046.18733 Z M284,2046.18733 L284,2046 L285,2046 L285,2046.18733 L285,2054.81267 L285,2055 L284,2055 L284,2054.81267 L284,2046.18733 Z M292,2046.18733 L292,2046 L293,2046 L293,2046.18733 L293,2054.81267 L293,2055 L292,2055 L292,2054.81267 L292,2046.18733 Z M300,2046.18733 L300,2046 L301,2046 L301,2046.18733 L301,2054.81267 L301,2055 L300,2055 L300,2054.81267 L300,2046.18733 Z M308,2046.18733 L308,2046 L309,2046 L309,2046.18733 L309,2054.81267 L309,2055 L308,2055 L308,2054.81267 L308,2046.18733 Z M316,2046.18733 L316,2046 L317,2046 L317,2046.18733 L317,2054.81267 L317,2055 L316,2055 L316,2054.81267 L316,2046.18733 Z M324,2046.18733 L324,2046 L325,2046 L325,2046.18733 L325,2054.81267 L325,2055 L324,2055 L324,2054.81267 L324,2046.18733 Z M332,2046.18733 L332,2046 L333,2046 L333,2046.18733 L333,2054.81267 L333,2055 L332,2055 L332,2054.81267 L332,2046.18733 Z M340,2046.18733 L340,2046 L341,2046 L341,2046.18733 L341,2054.81267 L341,2055 L340,2055 L340,2054.81267 L340,2046.18733 Z M348,2046.18733 L348,2046 L349,2046 L349,2046.18733 L349,2054.81267 L349,2055 L348,2055 L348,2054.81267 L348,2046.18733 Z M356,2046.18733 L356,2046 L357,2046 L357,2046.18733 L357,2054.81267 L357,2055 L356,2055 L356,2054.81267 L356,2046.18733 Z M364,2046.18733 L364,2046 L365,2046 L365,2046.18733 L365,2054.81267 L365,2055 L364,2055 L364,2054.81267 L364,2046.18733 Z M372,2046.18733 L372,2046 L373,2046 L373,2046.18733 L373,2054.81267 L373,2055 L372,2055 L372,2054.81267 L372,2046.18733 Z M380,2046.18733 L380,2046 L381,2046 L381,2046.18733 L381,2054.81267 L381,2055 L380,2055 L380,2054.81267 L380,2046.18733 Z M388,2046.18733 L388,2046 L389,2046 L389,2046.18733 L389,2054.81267 L389,2055 L388,2055 L388,2054.81267 L388,2046.18733 Z M396,2046.18733 L396,2046 L397,2046 L397,2046.18733 L397,2054.81267 L397,2055 L396,2055 L396,2054.81267 L396,2046.18733 Z M404,2046.18733 L404,2046 L405,2046 L405,2046.18733 L405,2054.81267 L405,2055 L404,2055 L404,2054.81267 L404,2046.18733 Z M412,2046.18733 L412,2046 L413,2046 L413,2046.18733 L413,2054.81267 L413,2055 L412,2055 L412,2054.81267 L412,2046.18733 Z M420,2046.18733 L420,2046 L421,2046 L421,2046.18733 L421,2054.81267 L421,2055 L420,2055 L420,2054.81267 L420,2046.18733 Z M428,2046.18733 L428,2046 L429,2046 L429,2046.18733 L429,2054.81267 L429,2055 L428,2055 L428,2054.81267 L428,2046.18733 Z M436,2046.18733 L436,2046 L437,2046 L437,2046.18733 L437,2054.81267 L437,2055 L436,2055 L436,2054.81267 L436,2046.18733 Z M444,2046.18733 L444,2046 L445,2046 L445,2046.18733 L445,2054.81267 L445,2055 L444,2055 L444,2054.81267 L444,2046.18733 Z M452,2046.18733 L452,2046 L453,2046 L453,2046.18733 L453,2054.81267 L453,2055 L452,2055 L452,2054.81267 L452,2046.18733 Z M460,2046.18733 L460,2046 L461,2046 L461,2046.18733 L461,2054.81267 L461,2055 L460,2055 L460,2054.81267 L460,2046.18733 Z M468,2046.18733 L468,2046 L469,2046 L469,2046.18733 L469,2054.81267 L469,2055 L468,2055 L468,2054.81267 L468,2046.18733 Z M476,2046.18733 L476,2046 L477,2046 L477,2046.18733 L477,2054.81267 L477,2055 L476,2055 L476,2054.81267 L476,2046.18733 Z M484,2046.18733 L484,2046 L485,2046 L485,2046.18733 L485,2054.81267 L485,2055 L484,2055 L484,2054.81267 L484,2046.18733 Z M492,2046.18733 L492,2046 L493,2046 L493,2046.18733 L493,2054.81267 L493,2055 L492,2055 L492,2054.81267 L492,2046.18733 Z M500,2046.18733 L500,2046 L501,2046 L501,2046.18733 L501,2054.81267 L501,2055 L500,2055 L500,2054.81267 L500,2046.18733 Z M508,2046.18733 L508,2046 L509,2046 L509,2046.18733 L509,2054.81267 L509,2055 L508,2055 L508,2054.81267 L508,2046.18733 Z M516,2046.18733 L516,2046 L517,2046 L517,2046.18733 L517,2054.81267 L517,2055 L516,2055 L516,2054.81267 L516,2046.18733 Z M524,2046.18733 L524,2046 L525,2046 L525,2046.18733 L525,2054.81267 L525,2055 L524,2055 L524,2054.81267 L524,2046.18733 Z M532,2046.18733 L532,2046 L533,2046 L533,2046.18733 L533,2054.81267 L533,2055 L532,2055 L532,2054.81267 L532,2046.18733 Z M540,2046.18733 L540,2046 L541,2046 L541,2046.18733 L541,2054.81267 L541,2055 L540,2055 L540,2054.81267 L540,2046.18733 Z M548,2046.18733 L548,2046 L549,2046 L549,2046.18733 L549,2054.81267 L549,2055 L548,2055 L548,2054.81267 L548,2046.18733 Z M556,2046.18733 L556,2046 L557,2046 L557,2046.18733 L557,2054.81267 L557,2055 L556,2055 L556,2054.81267 L556,2046.18733 Z M564,2046.18733 L564,2046 L565,2046 L565,2046.18733 L565,2054.81267 L565,2055 L564,2055 L564,2054.81267 L564,2046.18733 Z M572,2046.18733 L572,2046 L573,2046 L573,2046.18733 L573,2054.81267 L573,2055 L572,2055 L572,2054.81267 L572,2046.18733 Z M580,2046.18733 L580,2046 L581,2046 L581,2046.18733 L581,2054.81267 L581,2055 L580,2055 L580,2054.81267 L580,2046.18733 Z M588,2046.18733 L588,2046 L589,2046 L589,2046.18733 L589,2054.81267 L589,2055 L588,2055 L588,2054.81267 L588,2046.18733 Z M596,2046.18733 L596,2046 L597,2046 L597,2046.18733 L597,2054.81267 L597,2055 L596,2055 L596,2054.81267 L596,2046.18733 Z M604,2046.18733 L604,2046 L605,2046 L605,2046.18733 L605,2054.81267 L605,2055 L604,2055 L604,2054.81267 L604,2046.18733 Z M612,2046.18733 L612,2046 L613,2046 L613,2046.18733 L613,2054.81267 L613,2055 L612,2055 L612,2054.81267 L612,2046.18733 Z M620,2046.18733 L620,2046 L621,2046 L621,2046.18733 L621,2054.81267 L621,2055 L620,2055 L620,2054.81267 L620,2046.18733 Z M628,2046.18733 L628,2046 L629,2046 L629,2046.18733 L629,2054.81267 L629,2055 L628,2055 L628,2054.81267 L628,2046.18733 Z M636,2046.18733 L636,2046 L637,2046 L637,2046.18733 L637,2054.81267 L637,2055 L636,2055 L636,2054.81267 L636,2046.18733 Z M644,2046.18733 L644,2046 L645,2046 L645,2046.18733 L645,2054.81267 L645,2055 L644,2055 L644,2054.81267 L644,2046.18733 Z M652,2046.18733 L652,2046 L653,2046 L653,2046.18733 L653,2054.81267 L653,2055 L652,2055 L652,2054.81267 L652,2046.18733 Z M660,2046.18733 L660,2046 L661,2046 L661,2046.18733 L661,2054.81267 L661,2055 L660,2055 L660,2054.81267 L660,2046.18733 Z M668,2046.18733 L668,2046 L669,2046 L669,2046.18733 L669,2054.81267 L669,2055 L668,2055 L668,2054.81267 L668,2046.18733 Z M676,2046.18733 L676,2046 L677,2046 L677,2046.18733 L677,2054.81267 L677,2055 L676,2055 L676,2054.81267 L676,2046.18733 Z M684,2046.18733 L684,2046 L685,2046 L685,2046.18733 L685,2054.81267 L685,2055 L684,2055 L684,2054.81267 L684,2046.18733 Z M692,2046.18733 L692,2046 L693,2046 L693,2046.18733 L693,2054.81267 L693,2055 L692,2055 L692,2054.81267 L692,2046.18733 Z M700,2046.18733 L700,2046 L701,2046 L701,2046.18733 L701,2054.81267 L701,2055 L700,2055 L700,2054.81267 L700,2046.18733 Z M708,2046.18733 L708,2046 L709,2046 L709,2046.18733 L709,2054.81267 L709,2055 L708,2055 L708,2054.81267 L708,2046.18733 Z M716,2046.18733 L716,2046 L717,2046 L717,2046.18733 L717,2054.81267 L717,2055 L716,2055 L716,2054.81267 L716,2046.18733 Z M724,2046.18733 L724,2046 L725,2046 L725,2046.18733 L725,2054.81267 L725,2055 L724,2055 L724,2054.81267 L724,2046.18733 Z M732,2046.18733 L732,2046 L733,2046 L733,2046.18733 L733,2054.81267 L733,2055 L732,2055 L732,2054.81267 L732,2046.18733 Z M740,2046.18733 L740,2046 L741,2046 L741,2046.18733 L741,2054.81267 L741,2055 L740,2055 L740,2054.81267 L740,2046.18733 Z M748,2046.18733 L748,2046 L749,2046 L749,2046.18733 L749,2054.81267 L749,2055 L748,2055 L748,2054.81267 L748,2046.18733 Z M756,2046.18733 L756,2046 L757,2046 L757,2046.18733 L757,2054.81267 L757,2055 L756,2055 L756,2054.81267 L756,2046.18733 Z M764,2046.18733 L764,2046 L765,2046 L765,2046.18733 L765,2054.81267 L765,2055 L764,2055 L764,2054.81267 L764,2046.18733 Z M772,2046.18733 L772,2046 L773,2046 L773,2046.18733 L773,2054.81267 L773,2055 L772,2055 L772,2054.81267 L772,2046.18733 Z M780,2046.18733 L780,2046 L781,2046 L781,2046.18733 L781,2054.81267 L781,2055 L780,2055 L780,2054.81267 L780,2046.18733 Z M788,2046.18733 L788,2046 L789,2046 L789,2046.18733 L789,2054.81267 L789,2055 L788,2055 L788,2054.81267 L788,2046.18733 Z M796,2046.18733 L796,2046 L797,2046 L797,2046.18733 L797,2054.81267 L797,2055 L796,2055 L796,2054.81267 L796,2046.18733 Z M804,2046.18733 L804,2046 L805,2046 L805,2046.18733 L805,2054.81267 L805,2055 L804,2055 L804,2054.81267 L804,2046.18733 Z M812,2046.18733 L812,2046 L813,2046 L813,2046.18733 L813,2054.81267 L813,2055 L812,2055 L812,2054.81267 L812,2046.18733 Z M820,2046.18733 L820,2046 L821,2046 L821,2046.18733 L821,2054.81267 L821,2055 L820,2055 L820,2054.81267 L820,2046.18733 Z M828,2046.18733 L828,2046 L829,2046 L829,2046.18733 L829,2054.81267 L829,2055 L828,2055 L828,2054.81267 L828,2046.18733 Z M836,2046.18733 L836,2046 L837,2046 L837,2046.18733 L837,2054.81267 L837,2055 L836,2055 L836,2054.81267 L836,2046.18733 Z M844,2046.18733 L844,2046 L845,2046 L845,2046.18733 L845,2054.81267 L845,2055 L844,2055 L844,2054.81267 L844,2046.18733 Z M852,2046.18733 L852,2046 L853,2046 L853,2046.18733 L853,2054.81267 L853,2055 L852,2055 L852,2054.81267 L852,2046.18733 Z M860,2046.18733 L860,2046 L861,2046 L861,2046.18733 L861,2054.81267 L861,2055 L860,2055 L860,2054.81267 L860,2046.18733 Z M868,2046.18733 L868,2046 L869,2046 L869,2046.18733 L869,2054.81267 L869,2055 L868,2055 L868,2054.81267 L868,2046.18733 Z M876,2046.18733 L876,2046 L877,2046 L877,2046.18733 L877,2054.81267 L877,2055 L876,2055 L876,2054.81267 L876,2046.18733 Z M884,2046.18733 L884,2046 L885,2046 L885,2046.18733 L885,2054.81267 L885,2055 L884,2055 L884,2054.81267 L884,2046.18733 Z M892,2046.18733 L892,2046 L893,2046 L893,2046.18733 L893,2054.81267 L893,2055 L892,2055 L892,2054.81267 L892,2046.18733 Z M900,2046.18733 L900,2046 L901,2046 L901,2046.18733 L901,2054.81267 L901,2055 L900,2055 L900,2054.81267 L900,2046.18733 Z M908,2046.18733 L908,2046 L909,2046 L909,2046.18733 L909,2054.81267 L909,2055 L908,2055 L908,2054.81267 L908,2046.18733 Z M916,2046.18733 L916,2046 L917,2046 L917,2046.18733 L917,2054.81267 L917,2055 L916,2055 L916,2054.81267 L916,2046.18733 Z M924,2046.18733 L924,2046 L925,2046 L925,2046.18733 L925,2054.81267 L925,2055 L924,2055 L924,2054.81267 L924,2046.18733 Z M932,2046.18733 L932,2046 L933,2046 L933,2046.18733 L933,2054.81267 L933,2055 L932,2055 L932,2054.81267 L932,2046.18733 Z M940,2046.18733 L940,2046 L941,2046 L941,2046.18733 L941,2054.81267 L941,2055 L940,2055 L940,2054.81267 L940,2046.18733 Z M948,2046.18733 L948,2046 L949,2046 L949,2046.18733 L949,2054.81267 L949,2055 L948,2055 L948,2054.81267 L948,2046.18733 Z M956,2046.18733 L956,2046 L957,2046 L957,2046.18733 L957,2054.81267 L957,2055 L956,2055 L956,2054.81267 L956,2046.18733 Z M964,2046.18733 L964,2046 L965,2046 L965,2046.18733 L965,2054.81267 L965,2055 L964,2055 L964,2054.81267 L964,2046.18733 Z M972,2046.18733 L972,2046 L973,2046 L973,2046.18733 L973,2054.81267 L973,2055 L972,2055 L972,2054.81267 L972,2046.18733 Z M980,2046.18733 L980,2046 L981,2046 L981,2046.18733 L981,2054.81267 L981,2055 L980,2055 L980,2054.81267 L980,2046.18733 Z M988,2046.18733 L988,2046 L989,2046 L989,2046.18733 L989,2054.81267 L989,2055 L988,2055 L988,2054.81267 L988,2046.18733 Z M996,2046.18733 L996,2046 L997,2046 L997,2046.18733 L997,2054.81267 L997,2055 L996,2055 L996,2054.81267 L996,2046.18733 Z M1004,2046.18733 L1004,2046 L1005,2046 L1005,2046.18733 L1005,2054.81267 L1005,2055 L1004,2055 L1004,2054.81267 L1004,2046.18733 Z" id="Combined-Shape"></path>
        </g>
    </g>
</svg>