<?xml version="1.0" encoding="UTF-8"?>
<svg width="17px" height="14px" viewBox="0 0 17 14" version="1.1" xmlns="http://www.w3.org/2000/svg" xmlns:xlink="http://www.w3.org/1999/xlink">
    <!-- Generator: Sketch 49.2 (51160) - http://www.bohemiancoding.com/sketch -->
    <title>down-menu-twitter</title>
    <desc>Created with Sketch.</desc>
    <defs></defs>
    <g id="design" stroke="none" stroke-width="1" fill="none" fill-rule="evenodd">
        <g id="bcb-ico-1366" transform="translate(-675.000000, -10586.000000)" fill="#886566" fill-rule="nonzero">
            <g id="down-menu" transform="translate(-13.000000, 10565.000000)">
                <g id="soc" transform="translate(542.000000, 6.000000)">
                    <g id="tw" transform="translate(132.000000, 0.000000)">
                        <path d="M19.6552378,28.5169058 C25.4306554,28.3730132 28.5846033,23.5680894 28.5846033,19.3927267 C28.5846033,19.2535397 28.581609,19.1150957 28.575371,18.9776423 C29.2066596,18.5254084 29.7548577,17.9602398 30.1880265,17.3170571 C29.6083888,17.5721507 28.9855839,17.7445247 28.3318383,17.8220434 C28.999058,17.4250385 29.5115745,16.7964679 29.7528615,16.0472852 C29.12831,16.4148182 28.4366372,16.6817996 27.7005497,16.8256923 C27.1106816,16.2023227 26.2707932,15.8125 25.3413268,15.8125 C23.5562521,15.8125 22.1090292,17.2489496 22.1090292,19.0207358 C22.1090292,19.2721145 22.1377241,19.5168063 22.1928683,19.7515914 C19.5065231,19.617853 17.1250928,18.3406512 15.5309019,16.3999583 C15.2526857,16.873739 15.0932417,17.4247908 15.0932417,18.0127445 C15.0932417,19.1254976 15.6638967,20.1074842 16.5312324,20.682807 C16.0012493,20.6662136 15.5029555,20.5218256 15.067042,20.2815918 C15.0667925,20.2949657 15.0667925,20.3085872 15.0667925,20.321961 C15.0667925,21.8762985 16.1809046,23.1728181 17.6595672,23.4675379 C17.3883377,23.5408463 17.1028854,23.5802249 16.8079514,23.5802249 C16.5998507,23.5802249 16.3972395,23.5599165 16.1998682,23.5225192 C16.6113287,24.7969967 17.8047885,25.7244974 19.2193242,25.750502 C18.1129472,26.6108858 16.7193714,27.1237974 15.2052767,27.1237974 C14.9455252,27.1237974 14.6892669,27.1086899 14.4375,27.0792179 L14.4375,27.0809515 C15.8176017,27.9584241 17.4477237,28.4814899 19.199612,28.5169058 L19.6552378,28.5169058" id="down-menu-twitter"></path>
                    </g>
                </g>
            </g>
        </g>
    </g>
</svg>