<?xml version="1.0" encoding="UTF-8"?>
<svg width="15px" height="13px" viewBox="0 0 15 13" version="1.1" xmlns="http://www.w3.org/2000/svg" xmlns:xlink="http://www.w3.org/1999/xlink">
    <!-- Generator: Sketch 49.2 (51160) - http://www.bohemiancoding.com/sketch -->
    <title>down-menu-linkedin</title>
    <desc>Created with Sketch.</desc>
    <defs></defs>
    <g id="design" stroke="none" stroke-width="1" fill="none" fill-rule="evenodd">
        <g id="bcb-ico-1366" transform="translate(-544.000000, -10586.000000)" fill="#886566">
            <g id="down-menu" transform="translate(-13.000000, 10565.000000)">
                <g id="soc" transform="translate(542.000000, 6.000000)">
                    <g id="linkedin">
                        <path d="M29.1333659,27.8570798 L29.1333659,22.9314631 C29.1333659,20.2924395 27.7244848,19.0643998 25.846257,19.0643998 C24.3305532,19.0643998 23.6513464,19.8983734 23.272841,20.4833745 L23.272841,19.2662694 L20.4172282,19.2662694 C20.4550787,20.0724858 20.4172282,27.8570798 20.4172282,27.8570798 L23.272841,27.8570798 L23.272841,23.0593138 C23.272841,22.8031918 23.2913457,22.5466493 23.3670468,22.3632845 C23.5731219,21.8501994 24.0428891,21.3190302 24.831442,21.3190302 C25.8651822,21.3190302 26.2781737,22.106742 26.2781737,23.2611834 L26.2781737,27.8575003 L29.1333659,27.8575003 L29.1333659,27.8570798 Z M17.4089516,18.0937438 C18.4044207,18.0937438 19.024749,17.4334622 19.024749,16.6087411 C19.0062443,15.7663563 18.4044207,15.125 17.4278768,15.125 C16.451333,15.125 15.8125,15.7659358 15.8125,16.6087411 C15.8125,17.4334622 16.4324077,18.0937438 17.3908674,18.0937438 L17.4089516,18.0937438 Z M18.836758,27.8570798 L18.836758,19.2662694 L15.9815657,19.2662694 L15.9815657,27.8570798 L18.836758,27.8570798 Z" id="down-menu-linkedin"></path>
                    </g>
                </g>
            </g>
        </g>
    </g>
</svg>