<?xml version="1.0" encoding="UTF-8"?>
<svg width="18px" height="14px" viewBox="0 0 18 14" version="1.1" xmlns="http://www.w3.org/2000/svg" xmlns:xlink="http://www.w3.org/1999/xlink">
    <!-- Generator: Sketch 49.2 (51160) - http://www.bohemiancoding.com/sketch -->
    <title>down-menu-telegram</title>
    <desc>Created with Sketch.</desc>
    <defs></defs>
    <g id="design" stroke="none" stroke-width="1" fill="none" fill-rule="evenodd">
        <g id="bcb-ico-1366" transform="translate(-586.000000, -10586.000000)" fill="#886566" fill-rule="nonzero">
            <g id="down-menu" transform="translate(-13.000000, 10565.000000)">
                <g id="soc" transform="translate(542.000000, 6.000000)">
                    <g id="tg" transform="translate(44.000000, 0.000000)">
                        <path d="M30.2030615,16.0034521 C29.9867708,17.0325479 29.7708412,18.0605604 29.5534673,19.0892952 C29.5383017,19.1658454 29.5184419,19.2420346 29.501832,19.3178627 C29.4332256,19.6374241 29.3657025,19.9566243 29.296735,20.2761856 C29.0847774,21.2774778 28.8720976,22.2794921 28.6590567,23.2804232 C28.5788955,23.6353709 28.4987344,23.9917631 28.41749,24.3470719 C28.2911098,24.9937774 28.1647296,25.6401218 28.0369051,26.2882716 C27.8975258,26.9364214 27.7577854,27.5874599 27.6173229,28.237054 C27.28729,29.007251 26.8106562,29.1379642 26.1289254,28.6338878 C25.2153772,27.9579344 24.3065231,27.2751203 23.3962247,26.595556 C23.3395341,26.5569197 23.2832047,26.5182835 23.2268752,26.4792862 L22.8267917,26.8739535 C22.489176,27.206875 22.1530048,27.5394354 21.8161113,27.8730791 C21.7774751,27.9113542 21.7337836,27.9601009 21.6872035,28.0120973 C21.6586777,28.0417064 21.6323184,28.0727598 21.6034315,28.1027299 C21.5666007,28.1442549 21.5236314,28.1814467 21.4777735,28.2157499 C21.4496087,28.2374151 21.4106114,28.270274 21.3698087,28.3060215 C21.1481017,28.4970361 20.7758218,28.8162364 20.1962784,28.8162364 C20.1619752,28.8162364 20.1273109,28.8151531 20.0926466,28.8137088 C20.0572602,28.8151531 20.0215127,28.8173196 19.9879316,28.8173196 C19.7622527,28.8173196 19.0046938,28.7447413 18.7237687,27.8062781 C18.5948609,27.3736968 18.452954,26.9317273 18.3164634,26.5038401 C18.2608561,26.3287132 18.2041656,26.1535864 18.1478361,25.9752098 L17.6679525,24.4387878 L17.3028943,23.2677852 C17.2700355,23.1619869 17.2581196,23.0551054 17.2635359,22.9503903 C16.2593551,22.6405783 15.2558964,22.3300442 14.2524378,22.01951 C14.2148848,22.0079553 14.1704712,22.0000114 14.144473,21.9750964 C14.0014828,21.8386058 13.76786,21.7078926 13.7512501,21.5551531 C13.7339179,21.403858 13.9000176,21.165541 14.0509516,21.0749084 C14.391817,20.8698114 14.7695133,20.7217661 15.1396267,20.5690266 C15.5606532,20.3938997 15.9896237,20.2382716 16.4149833,20.0739773 C18.3092417,19.344222 20.2024169,18.6148278 22.095231,17.8850725 C23.0149176,17.5297637 23.9349654,17.1777046 24.8532077,16.8187849 C25.2197102,16.6754336 25.5804354,16.5172778 25.9436881,16.3659827 C26.5394804,16.1511364 27.1359949,15.9427896 27.726732,15.7199994 C28.0831241,15.5867586 28.4308502,15.4314915 28.7821871,15.2863348 C28.8760695,15.2606977 28.9706741,15.2404769 29.0631122,15.2094235 C29.6928466,14.993855 30.0445446,15.1877583 30.1777854,15.8297696 C30.1893402,15.8864602 30.1951176,15.9456783 30.2030615,16.0034521 Z M21.2228466,25.0349412 C21.1712113,25.7108947 21.1217424,26.3879314 21.0726347,27.0638848 L21.0520528,27.3433656 C21.0910501,27.3018407 21.128242,27.2592325 21.1679615,27.2184297 C21.5947654,26.7963199 22.0237359,26.3734879 22.4519842,25.951017 C22.0417902,25.6455381 21.6319573,25.339698 21.2228466,25.0349412 Z M24.5885315,19.0755739 C22.5075914,20.3881224 20.4266514,21.7042817 18.3446281,23.016108 C18.3023811,23.0424673 18.256162,23.0630493 18.2092208,23.0843533 C18.4818409,23.9560155 18.754461,24.8280388 19.026359,25.7004232 C19.2206234,26.3142698 19.4221095,26.9266721 19.6059024,27.5430463 C19.6817305,27.7986953 19.8131659,27.935547 20.0904801,27.8871615 C20.1673915,26.8439833 20.2410531,25.8015273 20.3197699,24.7579881 C20.3287971,24.636302 20.3432405,24.5128105 20.358045,24.3911245 C20.2403309,24.3236013 20.2919663,24.1943325 20.332769,24.1517243 C20.4046252,24.0777016 20.4764813,24.0022346 20.5483375,23.9271286 C20.5739746,23.9032969 20.600695,23.8791042 20.6256099,23.8552725 C20.6617186,23.8177195 20.6967439,23.7801665 20.7324915,23.7429746 C20.9047296,23.5826524 21.0762456,23.4194414 21.2484837,23.2583969 C21.3466992,23.1655977 21.4459979,23.0724375 21.5445744,22.9799994 C21.8117783,22.7297667 22.078621,22.479895 22.3505189,22.2336342 C23.041638,21.6053441 23.7468394,20.9914975 24.4394028,20.365735 C25.3222587,19.5670122 26.2029481,18.7654008 27.0774989,17.9576509 C27.1417723,17.8684626 27.1832972,17.7536371 27.2396267,17.6554217 C27.0829152,17.6763647 26.8991223,17.6503665 26.7745476,17.723667 C26.0382927,18.1623868 25.3139537,18.6184387 24.5885315,19.0755739 Z" id="down-menu-telegram"></path>
                    </g>
                </g>
            </g>
        </g>
    </g>
</svg>