<?xml version="1.0" encoding="UTF-8"?>
<svg width="14px" height="14px" viewBox="0 0 14 14" version="1.1" xmlns="http://www.w3.org/2000/svg" xmlns:xlink="http://www.w3.org/1999/xlink">
    <!-- Generator: Sketch 49.2 (51160) - http://www.bohemiancoding.com/sketch -->
    <title>events-date</title>
    <desc>Created with Sketch.</desc>
    <defs></defs>
    <g id="design" stroke="none" stroke-width="1" fill="none" fill-rule="evenodd">
        <g id="bcb-ico-1366" transform="translate(-673.000000, -7875.000000)" fill="#FFB600" fill-rule="nonzero">
            <g id="you-can-meet-us" transform="translate(213.000000, 7800.000000)">
                <g id="noun_1272092_cc" transform="translate(460.000000, 75.000000)">
                    <path d="M1.82608696,13.9619565 L11.5652174,13.9619565 C12.5737374,13.9619565 13.3913043,13.1443895 13.3913043,12.1358696 L13.3913043,3.30978261 C13.3913043,2.30126263 12.5737374,1.48369565 11.5652174,1.48369565 L10.3478261,1.48369565 L10.3478261,0.64673913 C10.3478261,0.310565804 10.0753038,0.0380434783 9.73913043,0.0380434783 C9.40295711,0.0380434783 9.13043478,0.310565804 9.13043478,0.64673913 L9.13043478,1.48369565 L4.26086957,1.48369565 L4.26086957,0.64673913 C4.26086957,0.310565804 3.98834724,0.0380434783 3.65217391,0.0380434783 C3.31600059,0.0380434783 3.04347826,0.310565804 3.04347826,0.64673913 L3.04347826,1.48369565 L1.82608696,1.48369565 C0.817566979,1.48369565 2.70315171e-16,2.30126263 0,3.30978261 L0,12.1358696 C2.70315171e-16,13.1443895 0.817566979,13.9619565 1.82608696,13.9619565 Z M11.5652174,12.7445652 L1.82608696,12.7445652 C1.48991363,12.7445652 1.2173913,12.4720429 1.2173913,12.1358696 L1.2173913,7.11413043 L12.173913,7.11413043 L12.173913,12.1358696 C12.173913,12.4720429 11.9013907,12.7445652 11.5652174,12.7445652 Z M1.82608696,2.70108696 L3.04347826,2.70108696 L3.04347826,3.38586957 C3.04347826,3.72204289 3.31600059,3.99456522 3.65217391,3.99456522 C3.98834724,3.99456522 4.26086957,3.72204289 4.26086957,3.38586957 L4.26086957,2.70108696 L9.13043478,2.70108696 L9.13043478,3.38586957 C9.13043478,3.72204289 9.40295711,3.99456522 9.73913043,3.99456522 C10.0753038,3.99456522 10.3478261,3.72204289 10.3478261,3.38586957 L10.3478261,2.70108696 L11.5652174,2.70108696 C11.9013907,2.70108696 12.173913,2.97360928 12.173913,3.30978261 L12.173913,5.89673913 L1.2173913,5.89673913 L1.2173913,3.30978261 C1.2173913,2.97360928 1.48991363,2.70108696 1.82608696,2.70108696 Z" id="events-date"></path>
                </g>
            </g>
        </g>
    </g>
</svg>