<?xml version="1.0" encoding="UTF-8"?>
<svg width="13px" height="11px" viewBox="0 0 13 11" version="1.1" xmlns="http://www.w3.org/2000/svg" xmlns:xlink="http://www.w3.org/1999/xlink">
    <!-- Generator: Sketch 49.2 (51160) - http://www.bohemiancoding.com/sketch -->
    <title>follow-telegram</title>
    <desc>Created with Sketch.</desc>
    <defs>
        <linearGradient x1="61.8177899%" y1="98.4617108%" x2="39.6373327%" y2="15.2954294%" id="linearGradient-1">
            <stop stop-color="#FF3057" offset="0%"></stop>
            <stop stop-color="#982729" offset="100%"></stop>
        </linearGradient>
        <path d="M12.8100004,5.68394396 C12.6416012,6.48517585 12.473483,7.28556434 12.3042404,8.0865151 C12.2924327,8.1461155 12.2769704,8.20543478 12.2640382,8.26447292 C12.2106227,8.5132765 12.1580507,8.76179896 12.1043541,9.01060254 C11.9393284,9.79018712 11.7737405,10.570334 11.6078714,11.3496374 C11.5454597,11.6259921 11.483048,11.9034714 11.4197928,12.1801072 C11.3213959,12.6836182 11.222999,13.1868481 11.1234776,13.6914836 C11.0149599,14.1961191 10.906161,14.7030037 10.7967999,15.2087638 C10.5398434,15.8084226 10.1687465,15.9101931 9.63796554,15.51773 C8.92669652,14.9914472 8.21908225,14.4598228 7.51034345,13.9307286 C7.46620541,13.9006473 7.42234851,13.8705659 7.3784916,13.8402035 L7.06699514,14.1474829 C6.80413485,14.4066885 6.5423991,14.6656129 6.28010108,14.9253807 C6.25001974,14.9551809 6.21600253,14.993134 6.17973624,15.0336173 C6.15752666,15.0566703 6.13700387,15.0808478 6.11451315,15.1041819 C6.08583749,15.1365123 6.05238254,15.1654691 6.01667852,15.1921769 C5.99475007,15.2090449 5.9643876,15.2346281 5.93261946,15.2624604 C5.76000318,15.4111802 5.47015403,15.6597027 5.01893397,15.6597027 C4.99222624,15.6597027 4.96523738,15.6588593 4.93824851,15.6577348 C4.91069738,15.6588593 4.88286512,15.6605461 4.85671965,15.6605461 C4.68101091,15.6605461 4.09119178,15.6040382 3.87246953,14.8733709 C3.77210469,14.5365724 3.66161903,14.1924644 3.55535038,13.8593206 C3.51205575,13.7229706 3.46791771,13.5866206 3.42406081,13.4477404 L3.05043372,12.2515153 L2.76620725,11.3397977 C2.74062406,11.2574254 2.73134664,11.1742098 2.73556365,11.0926809 C1.95373,10.851468 1.17245863,10.6096927 0.39118725,10.3679175 C0.361949315,10.3589212 0.327369833,10.3527362 0.307128185,10.333338 C0.195799122,10.2270693 0.0139054266,10.1252988 0.000973262776,10.0063792 C-0.0125211691,9.88858401 0.116800469,9.70303558 0.23431448,9.63247094 C0.499704973,9.47278683 0.793771133,9.35752189 1.08193348,9.23860221 C1.40973572,9.10225223 1.74372291,8.98108347 2.07489876,8.8531675 C3.5497277,8.2849957 5.02371325,7.71710502 6.49741766,7.14893322 C7.21346595,6.87229736 7.92979537,6.59819172 8.64471912,6.31874452 C8.93007013,6.20713433 9.21092299,6.08399764 9.49374379,5.96620249 C9.95761489,5.79892776 10.4220483,5.63671345 10.8819835,5.46325377 C11.1594627,5.35951533 11.4301948,5.23862771 11.7037381,5.12561184 C11.776833,5.10565133 11.8504901,5.08990783 11.9224604,5.0657303 C12.4127581,4.89789331 12.6865826,5.04886226 12.790321,5.54871851 C12.7993173,5.59285655 12.8038155,5.63896252 12.8100004,5.68394396 Z M5.81819792,12.7156675 C5.77799576,13.2419503 5.7394804,13.7690766 5.70124618,14.2953594 L5.68522154,14.5129571 C5.71558401,14.4806267 5.74454081,14.4474529 5.77546555,14.4156848 C6.10776594,14.0870391 6.44175313,13.7578312 6.77517805,13.4289044 C6.45580983,13.1910651 6.13672274,12.9529446 5.81819792,12.7156675 Z M8.43864791,8.075832 C6.81847268,9.09775408 5.19829746,10.1224875 3.57727883,11.1438473 C3.54438616,11.1643701 3.50840101,11.1803947 3.47185359,11.1969816 C3.68410975,11.8756391 3.89636592,12.5545777 4.10805982,13.2337974 C4.25930991,13.7117252 4.41618268,14.1885285 4.55927988,14.6684242 C4.61831802,14.8674671 4.7206508,14.9740169 4.93656171,14.9363449 C4.99644325,14.1241488 5.05379459,13.312515 5.1150818,12.5000377 C5.12211015,12.4052956 5.13335551,12.3091477 5.144882,12.2144056 C5.05323232,12.1618335 5.09343448,12.0611875 5.12520262,12.0280137 C5.18114829,11.9703813 5.23709395,11.9116243 5.29303962,11.8531484 C5.31300013,11.8345935 5.33380405,11.8157576 5.35320229,11.7972027 C5.38131569,11.7679648 5.40858569,11.7387268 5.43641795,11.70977 C5.57051887,11.5849466 5.70405752,11.457874 5.83815844,11.3324882 C5.91462688,11.2602368 5.99193873,11.1877042 6.06868831,11.1157339 C6.27672747,10.9209081 6.48448549,10.7263633 6.69617939,10.5346299 C7.23426986,10.0454568 7.78332456,9.56752899 8.32253956,9.08032377 C9.00991219,8.45845537 9.695598,7.8343379 10.3765045,7.20544115 C10.4265464,7.13600105 10.4588768,7.04660044 10.5027337,6.970132 C10.3807216,6.98643777 10.2376243,6.96619612 10.1406331,7.02326632 C9.5674009,7.36484413 9.0034461,7.71991636 8.43864791,8.075832 Z" id="path-2"></path>
    </defs>
    <g id="design-3" stroke="none" stroke-width="1" fill="none" fill-rule="evenodd">
        <g id="bcb-ico-1366-v2" transform="translate(-785.000000, -606.000000)" fill-rule="nonzero">
            <g id="Group-87" transform="translate(456.000000, 475.000000)">
                <g id="Group-84" transform="translate(329.000000, 126.000000)">
                    <g id="follow-telegram">
                        <use fill="url(#linearGradient-1)" fill-rule="evenodd" xlink:href="#path-2"></use>
                        <use fill-opacity="0.0799999982" fill="#FFFFFF" fill-rule="evenodd" xlink:href="#path-2"></use>
                        <use fill="#FFB600" fill-rule="evenodd" xlink:href="#path-2"></use>
                    </g>
                </g>
            </g>
        </g>
    </g>
</svg>