<?xml version="1.0" encoding="UTF-8"?>
<svg width="17px" height="17px" viewBox="0 0 17 17" version="1.1" xmlns="http://www.w3.org/2000/svg" xmlns:xlink="http://www.w3.org/1999/xlink">
    <!-- Generator: Sketch 49.2 (51160) - http://www.bohemiancoding.com/sketch -->
    <title>popup-close</title>
    <desc>Created with Sketch.</desc>
    <defs></defs>
    <g id="design" stroke="none" stroke-width="1" fill="none" fill-rule="evenodd">
        <g id="popup" transform="translate(-667.000000, -825.000000)" fill="#FFFFFF" fill-rule="nonzero">
            <g id="ч" transform="translate(644.000000, 809.000000)">
                <g id="noun_65508_cc" transform="translate(23.322581, 16.322581)">
                    <path d="M6.90462649,8.35434756 L0.30027286,1.74999394 C-0.100090953,1.35004244 -0.100090953,0.700636672 0.30027286,0.30027286 C0.700636672,-0.100090953 1.3492178,-0.100090953 1.74999394,0.30027286 L8.35434756,6.90462649 L14.9587012,0.30027286 C15.359065,-0.100090953 16.0076461,-0.100090953 16.4084223,0.30027286 C16.8087861,0.700224351 16.8087861,1.34963012 16.4084223,1.74999394 L9.80406864,8.35434756 L16.4084223,14.9587012 C16.8087861,15.3586527 16.8087861,16.0080585 16.4084223,16.4084223 C16.2080342,16.6088103 15.945798,16.708592 15.6835617,16.708592 C15.4213255,16.708592 15.1590893,16.608398 14.9587012,16.4084223 L8.35434756,9.80406864 L1.74999394,16.4084223 C1.54960587,16.6088103 1.28736963,16.708592 1.0251334,16.708592 C0.762897162,16.708592 0.500660927,16.608398 0.30027286,16.4084223 C-0.100090953,16.0084708 -0.100090953,15.359065 0.30027286,14.9587012 L6.90462649,8.35434756 Z" id="popup-close"></path>
                </g>
            </g>
        </g>
    </g>
</svg>