<?xml version="1.0" encoding="UTF-8"?>
<svg width="227px" height="276px" viewBox="0 0 227 276" version="1.1" xmlns="http://www.w3.org/2000/svg" xmlns:xlink="http://www.w3.org/1999/xlink">
    <!-- Generator: Sketch 49.2 (51160) - http://www.bohemiancoding.com/sketch -->
    <title>team-join</title>
    <desc>Created with Sketch.</desc>
    <defs>
        <rect id="path-1" x="0" y="0" width="228" height="276"></rect>
    </defs>
    <g id="design" stroke="none" stroke-width="1" fill="none" fill-rule="evenodd">
        <g id="bcb-ico-1366" transform="translate(-1139.000000, -6920.000000)">
            <g id="7-team" transform="translate(0.000000, 6560.000000)">
                <g id="Group-53" transform="translate(0.000000, 84.000000)">
                    <g id="Group-40" transform="translate(1139.000000, 276.000000)">
                        <g id="team-join">
                            <mask id="mask-2" fill="white">
                                <use xlink:href="#path-1"></use>
                            </mask>
                            <use id="Mask" fill="#323237" xlink:href="#path-1"></use>
                            <path d="M115.935479,312.309357 C40.9176833,312.309357 -20.0909836,302.510225 -20.0909836,284.980668 C-20.0909836,285.996874 -20.0909836,276.923604 -20.0909836,275.907398 C-20.0909836,243.388798 4.87865523,225.641482 16.8553715,219.870883 C28.7595016,214.136576 54.8542259,206.079512 65.6332706,199.22012 C76.4849014,192.360728 79.6061062,189.78392 79.6061062,189.78392 C79.6061062,189.78392 79.3883478,188.36849 79.6061062,189.78392 L79.6061062,176.174015 C71.9845595,165.975659 66.8672353,153.527133 63.6008581,138.247747 C63.5282719,138.247747 63.4556858,138.392919 63.4556858,138.392919 C58.2657754,139.808349 51.9507795,132.876371 49.3376778,122.895774 C46.7245761,113.024056 48.7206954,103.805614 53.8017266,102.390184 C54.1646574,102.353891 54.455002,102.535356 54.7816398,102.46277 C54.0194851,91.50226 52.3137103,77.3116658 52.3137103,72.6661516 C52.3137103,65.1171911 51.261211,58.729609 60.9514633,45.3374627 C70.6780086,32.0179024 78.7713654,37.2078128 78.7713654,37.2078128 C78.7713654,37.2078128 85.0137751,30.7839377 90.7480817,27.9167844 C96.4823883,25.013338 110.201172,17.7547221 135.424863,25.2673896 C160.61226,32.8163502 170.375098,36.0464343 176.690094,65.1171911 C180.319402,81.8483008 179.121731,94.1879479 178.069231,102.46277 C178.28699,102.46277 178.432162,102.353891 178.649921,102.390184 C183.839831,103.805614 185.872243,113.024056 183.259142,122.895774 C180.537161,132.658612 174.439923,139.481711 169.358892,138.465505 C166.019929,154.470753 160.503381,165.757901 152.192266,176.174015 L152.192266,189.78392 C152.264852,189.20323 152.192266,189.78392 152.192266,189.78392 C152.192266,189.78392 155.204591,192.360728 165.874757,199.22012 C176.726387,206.079512 202.821112,214.136576 214.761535,219.870883 C226.37532,225.460017 250.76427,244.659056 251.961942,275.907398 C252.252286,276.742139 251.961942,284.18222 251.961942,284.980668 C251.961942,302.510225 190.953275,312.309357 115.935479,312.309357 Z" id="Shape" fill="#131318" fill-rule="nonzero" mask="url(#mask-2)"></path>
                        </g>
                    </g>
                </g>
            </g>
        </g>
    </g>
</svg>