<svg xmlns="http://www.w3.org/2000/svg" xmlns:xlink="http://www.w3.org/1999/xlink" width="64" height="64" viewBox="0 0 64 64">
    <defs>
        <linearGradient id="a" x1="94.445%" x2="2.07%" y1="45.45%" y2="70.087%">
            <stop offset="0%" stop-color="#AE2C45"/>
            <stop offset="100%" stop-color="#600D0F"/>
        </linearGradient>
        <linearGradient id="b" x1="61.818%" x2="39.637%" y1="98.462%" y2="15.295%">
            <stop offset="0%" stop-color="#FF3057"/>
            <stop offset="100%" stop-color="#982729"/>
        </linearGradient>
        <path id="c" d="M43.932 23.278l-.945 4.488c-.022.112-.051.222-.075.333-.1.465-.198.929-.299 1.394-.308 1.456-.617 2.914-.927 4.37-.117.516-.233 1.034-.351 1.55-.184.942-.368 1.882-.554 2.824l-.61 2.835c-.48 1.12-1.174 1.31-2.165.577-1.33-.983-2.651-1.976-3.975-2.965a40.753 40.753 0 0 1-.246-.169l-.582.574-1.47 1.454c-.057.055-.12.126-.188.202l-.122.132c-.053.06-.116.114-.183.164-.04.032-.097.08-.157.131-.322.278-.864.743-1.707.743-.05 0-.1-.002-.15-.004-.052.002-.104.005-.153.005-.328 0-1.43-.105-1.838-1.47-.188-.63-.394-1.273-.593-1.895-.08-.255-.163-.51-.245-.769l-.698-2.235-.531-1.703a1.32 1.32 0 0 1-.057-.462c-1.461-.45-2.92-.902-4.38-1.354-.055-.016-.12-.028-.157-.064-.208-.199-.548-.389-.572-.611-.025-.22.216-.567.436-.699.496-.298 1.045-.513 1.583-.735.613-.255 1.237-.482 1.855-.72l8.263-3.184c1.337-.517 2.675-1.03 4.011-1.551.533-.209 1.058-.439 1.586-.659.867-.312 1.735-.615 2.594-.94.518-.193 1.024-.42 1.535-.63.137-.038.274-.067.409-.112.916-.314 1.427-.032 1.621.902.017.083.025.169.037.253zM30.87 36.414a796.18 796.18 0 0 0-.219 2.952l-.03.406c.057-.06.111-.122.169-.182.62-.614 1.245-1.229 1.867-1.843l-1.787-1.333zm4.895-8.668c-3.027 1.91-6.054 3.824-9.082 5.732-.061.038-.129.068-.197.1l1.189 3.804c.282.893.575 1.784.843 2.68.11.372.301.572.705.501.111-1.517.219-3.034.333-4.551.013-.177.034-.357.056-.534-.172-.098-.096-.286-.037-.348l.313-.327.113-.104.155-.164c.25-.233.5-.47.75-.705a156.893 156.893 0 0 1 1.604-1.49c1.005-.914 2.03-1.807 3.038-2.717a504.307 504.307 0 0 0 3.837-3.503c.094-.13.154-.297.236-.44-.228.031-.495-.007-.676.1-1.071.638-2.125 1.301-3.18 1.966z"/>
    </defs>
    <g fill="none" fill-rule="evenodd">
        <circle cx="32" cy="32" r="32" fill="url(#a)" opacity=".463"/>
        <g fill-rule="evenodd">
            <use fill="url(#b)" xlink:href="#c"/>
            <use fill="#FFF" fill-opacity=".08" xlink:href="#c"/>
        </g>
    </g>
</svg>
